<?xml version="1.0" encoding="utf-8"?>
<!-- Generator: Adobe Illustrator 16.0.0, SVG Export Plug-In . SVG Version: 6.00 Build 0)  -->
<!DOCTYPE svg PUBLIC "-//W3C//DTD SVG 1.1//EN" "http://www.w3.org/Graphics/SVG/1.1/DTD/svg11.dtd">
<svg version="1.1" id="Layer_1" xmlns="http://www.w3.org/2000/svg" xmlns:xlink="http://www.w3.org/1999/xlink" x="0px" y="0px"
	 width="1920px" height="1080px" viewBox="0 0 1920 1080" enable-background="new 0 0 1920 1080" xml:space="preserve">
<g>
	<path fill-rule="evenodd" clip-rule="evenodd" fill="#FFFFFF" d="M1,1081C1,721,1,361,1,1c640,0,1280,0,1920,0
		c0,360,0,719.999,0,1079.999C1281,1081,641,1081,1,1081z M1239.107,954.13c2.898,0.915,5.756,2.025,8.715,2.649
		c1.214,0.256,2.649-0.538,3.984-0.854c-0.492-1.038-0.892-2.134-1.496-3.102c-0.938-1.501-2.401-2.779-2.965-4.389
		c-2.219-6.335-5.483-8.772-12.082-8.629c0.913,1.777,3.07,4.146,2.547,5.297c-1.667,3.674,0.385,6.254,1.455,9.185
		c-3.603-0.535-7.204-1.07-10.807-1.605c1.123,2.498,3.47,3.986,3.276,4.982c-0.791,4.076,2.416,5.708,4.554,7.188
		c1.643,1.137,5.245,1.099,6.95-0.004c1.529-0.99,1.648-3.78-1.354-5.382C1240.426,958.688,1240,955.97,1239.107,954.13z
		 M1442.742,219.427c-0.424,0.554-0.847,1.106-1.271,1.659c2.249,6.768,4.584,13.509,6.678,20.323
		c0.467,1.519,0.416,3.379,0.033,4.942c-1.632,6.673,0.22,11.386,6.222,11.206c7.639-0.228,8.267,5.683,10.386,9.769
		c3.589,6.918,6.039,14.43,8.892,21.721c0.347,0.887,0.398,1.978,0.287,2.938c-0.467,4.018,1.49,6.141,5.176,7.187
		c9.845,2.794,19.67,5.655,29.501,8.499c1.109,0.32,2.182,0.828,3.31,1.021c3.647,0.619,7.308,1.528,10.974,1.58
		c4.097,0.059,8.589-0.481,10.457,3.879c3.611,8.428,10.871,13.37,17.29,19.027c3.192,2.813,4.623,5.473,4.637,9.69
		c0.035,10.227,6.457,15.766,16.343,14.647c8.219-0.93,16.19-0.631,23.939,3.012c3.18,1.495,7.056,1.442,10.537,2.38
		c2.322,0.625,5.171,1.156,6.629,2.772c4.27,4.733,7.919,10.022,11.893,15.029c2.912,3.667,14.398,7.372,16.824,4.775
		c4.597-4.921,9.104-10.259,12.16-16.191c3.13-6.076,4.095-13.228,6.712-19.62c2.572-6.284,6.03-12.206,9.097-18.288
		c0.446-0.885,0.876-1.777,1.723-3.498c-13.2-7.434-24.294-17.426-33.26-29.818c-0.5,0.233-1,0.468-1.499,0.702
		c-0.657,2.55-1.313,5.1-1.99,7.726c-0.36-0.259-0.895-0.448-1.108-0.822c-3.266-5.707-3.806-12.88-9.46-17.35
		c-0.7-0.553-0.939-2.141-0.833-3.192c1.096-10.899-7.74-18.588-9.22-28.702c-0.474-3.24-2.898-6.158-3.675-9.404
		c-0.634-2.652-1.372-3.663-3.912-2.322c-4.044,2.137-8.061,4.323-11.8,6.333c2.186-4.764,5.454-9.606,6.628-14.913
		c2.603-11.759,1.547-12.323-9.034-14.192c-3.98-0.703-7.731-1.568-9.647-6.428c-1.498-3.799-4.278-7.814-7.623-9.984
		c-4.404-2.857-9.594-4.74-15.514-2.755c-3.092,1.037-6.817,0.184-11.28,0.184c0.598-3.441,1.194-6.167,1.512-8.925
		c0.258-2.246,1.17-5.737,0.102-6.612c-11.55-9.461-21.745-21.419-38.647-21.603c-2.896-0.031-7.905-0.391-6.876-5.624
		c0.928-4.72-1.546-7.336-4.845-9.052c-4.176-2.171-8.747-4.512-13.271-4.795c-3.771-0.235-7.72,2.391-11.046,3.559
		c-2.837-1.872-5.835-5.472-8.933-5.56c-6.722-0.191-11.588-2.941-16.434-7.002c-1.503-1.26-4.292-1.295-6.504-1.344
		c-7.943-0.176-16.543,1.534-20.424-8.509c-0.289-0.748-1.891-0.975-2.864-1.477c-3.566-1.84-7.852-2.984-10.519-5.709
		c-3.99-4.076-6.757-9.33-10.211-13.959c-1.765-2.363-3.893-4.455-5.856-6.669c-0.586,0.311-1.171,0.621-1.757,0.933
		c0.909,4.231,2.211,8.425,2.63,12.705c0.54,5.503,2.445,12.289,0.064,16.357c-4.575,7.813-3.088,14.7-1.127,22.214
		c1.113,4.265,1.923,8.609,3.083,12.859c1.153,4.23,2.62,8.375,3.855,12.585c0.508,1.73,1.263,3.595,1.051,5.291
		c-0.719,5.748,0.97,10.507,6.26,12.778c4.84,2.077,6.532,5.884,8.441,10.148c1.014,2.264,3.234,4.113,5.216,5.789
		c3.084,2.607,6.398,4.948,9.683,7.31c0.855,0.615,1.956,1.25,2.945,1.252C1436.561,219.896,1439.651,219.604,1442.742,219.427z
		 M1473.083,464.604c0.72,1.25,1.483,2.152,1.798,3.19c2.092,6.911,3.639,14.028,6.29,20.711c1.476,3.72,4.142,7.525,7.311,9.907
		c8.454,6.354,17.691,11.666,26.124,18.044c2.423,1.832,3.853,5.743,4.499,8.95c0.704,3.496-0.188,7.288-0.063,10.939
		c0.051,1.489,0.527,3.381,1.527,4.353c6.482,6.299,14.283,7.098,21.481,1.654c8.625-6.522,17.076-7.054,26.205-1.276
		c1.854,1.173,4.388,1.426,6.659,1.753c8.618,1.243,16.639-1.357,24.715-3.867c6.117-1.901,10.945-4.599,11.802-11.808
		c0.17-1.425,1.972-3.142,3.44-3.841c5.773-2.745,11.717-5.133,17.593-7.662c2.535-1.091,6.301-2.005,3.897-5.714
		c-4.195-6.472-1.901-11.486,2.083-16.828c1.581-2.119,3.037-5.188,2.79-7.648c-0.709-7.065-1.921-14.143-3.679-21.025
		c-1.938-7.586-2.141-7.252,4.427-11.522c2.946-1.915,7.768-4.429,5.172-8.786c-3.03-5.088-7.224-9.297-9.813-14.988
		c-1.758-3.864-6.853-6.649-11.006-8.898c-10.604-5.741-12.201-16.111-3.286-24.009c2.919-2.585,5.761-5.256,8.078-7.376
		c-5.338-4.805-11.244-8.313-14.497-13.489c-4.518-7.186-10.438-9.337-18.087-11.773c-10.306-3.284-20.149-4.996-30.779-3.68
		c-6.483,0.803-9.671-1.135-12.106-7.139c-1.347-3.318-1.602-7.063-2.693-10.506c-0.747-2.359-1.599-5.007-3.25-6.7
		c-6.225-6.38-14.074-11.176-18.131-19.645c-1.844-3.848-5.742-3.099-9.222-3.215c-3.433-0.115-6.885-0.459-10.265-1.058
		c-3.033-0.538-5.98-1.563-8.966-2.366c-1.588-0.428-3.196-0.787-4.765-1.274c-5.58-1.736-11.147-3.514-17.409-5.493
		c0.239,2.217,0.188,3.205,0.469,4.089c1.485,4.701,3.137,9.35,4.577,14.064c2.572,8.42,0.227,16.291-3.071,23.954
		c-0.974,2.262-2.535,4.281-3.909,6.358c-2.199,3.326-4.457,6.614-6.709,9.906c-1.088,1.59-2.402,3.055-3.291,4.745
		c-1.736,3.304,0.137,9.342-6.789,8.675c-0.36-0.035-0.953,1.187-1.255,1.899c-1.214,2.867-2.355,5.764-3.071,7.53
		c-2.167,0.992-4.274,1.258-4.759,2.287c-4.988,10.599-6.88,21.681-3.508,33.128c1.789,6.074,4.824,11.813,6.292,17.943
		c2.546,10.632,8.657,19.545,13.01,29.293c0.104,0.231,0.555,0.308,1.028,0.552C1470.875,466.264,1471.859,465.523,1473.083,464.604
		z M1529.308,851.733c2.254,2.599,4.541,5.23,6.822,7.868c2.384,2.756,4.995,3.73,8.813,2.594
		c8.698-2.589,16.478-6.664,23.662-12.185c1.568-1.204,4.66-1.747,6.444-1.048c2.892,1.133,4.61,0.962,6.241-1.633
		c1.054-1.677,2.535-3.096,3.514-4.808c2.703-4.731,6.273-7.521,12.101-6.607c4.919,0.771,8.164-2.109,9.634-6.208
		c1.39-3.876,3.807-5.519,7.426-6.762c6.945-2.386,13.475-6.314,14.671-13.965c1.493-9.557,7.097-15.641,13.921-21.372
		c7.69-6.461,16.461-11.842,21.213-21.328c0.505-1.007,3.158-1.486,4.703-1.298c2.538,0.31,4.985,1.367,8.466,2.407
		c-0.818-5.063-1.401-8.662-1.983-12.261c0.339-1.93,1.865-3.854,3.534-5.645c2.704-2.902,2.184-5.753-0.44-8.116
		c-6.349-5.717-14.437-10.137-13.694-21.338c-2.541,1.171-4.268,1.966-5.994,2.761c-4.994,2.298-9.606-0.594-9.619-6.063
		c-0.003-1.497,0.101-2.999,0.237-4.491c0.57-6.243-0.359-7.423-6.432-7.781c-3.496-0.206-6.873-0.078-8.877-4.092
		c-0.521-1.043-3.629-1.521-5.294-1.141c-7.53,1.718-15.377,2.47-21.929,7.391c-2.018,1.516-4.904,1.9-7.417,2.728
		c-7.642,2.515-15.016,6.098-17.835,13.952c-5.709,15.903-19.288,20.887-33.323,23.071c-9.636,1.5-17.722,3.259-23.57,11.384
		c-1.451,2.016-3.487,3.611-4.924,5.635c-5.066,7.138-11.802,10.105-20.589,9.793c-7.476-0.267-15.252,0.014-21.377,5.217
		c-8.615,7.32-18.414,12.394-28.686,16.885c-3.52,1.539-7.817,3.9-9.28,7.042c-3.976,8.531-10.729,14.187-17.353,20.224
		c-3.797,3.46-7.434,6.124-13.085,5.898c-5.421-0.217-6.967,2.582-6.992,8.087c-0.013,2.853-0.776,6.089-2.289,8.457
		c-2.192,3.434-1.004,5.594,1.386,7.782c2.944,2.697,6.123,5.148,8.967,7.944c4.118,4.048,6.963,9.171,4.839,14.747
		c-1.471,3.859-0.625,6.083,1.926,8.227c6.197,5.207,11.745,10.632,9.607,20.435c2.012-0.563,3.582-1.17,4.478-2.309
		c1.519-1.929,2.694-4.148,3.867-6.325c3.689-6.853,8.365-11.989,17.168-10.531c0.896,0.148,1.884-0.261,3.31-0.487
		c-2.167-5.963,2.331-7.331,6.074-8.201c4.434-1.032,9.168-0.697,13.716-1.349c2.415-0.347,4.711-1.527,7.061-2.331
		c-0.107-0.349-0.214-0.697-0.321-1.047c2.15,0.579,4.3,1.158,6.581,1.771c0.817-2.406,1.438-4.233,2.04-6.004
		C1501.668,866.294,1522.162,858.271,1529.308,851.733z M955.717,484.427c3.972,3.464,5.137,3.931,8.928,0.001
		c4.291-4.449,7.838-9.67,11.343-14.805c2.649-3.882,5.331-7.943,6.855-12.322c1.169-3.355,0.554-7.332,0.731-11.032
		c-2.055,0.225-4.107,0.463-6.164,0.662c-0.308,0.03-0.633-0.114-0.949-0.188c-6.12-9.984-5.644-15.248,3.078-22.427
		c6.301,6.064,12.717,12.239,19.277,18.554c0.164-0.18,0.737-0.569,0.979-1.107c3.856-8.615,4.327-18.631,10.868-26.166
		c0.529-0.609,0.396-1.94,0.312-2.913c-0.97-11.186-1.962-22.369-3.054-33.544c-0.077-0.791-0.827-1.734-1.531-2.214
		c-8.326-5.661-16.73-11.206-25.05-16.876c-2.646-1.804-5.801-3.222-5.555-7.482c0.045-0.778-2.373-2.045-3.834-2.479
		c-1.992-0.593-4.571,0.048-6.178-0.974c-7.545-4.796-12.859-3.611-16.747,4.122c-0.655,1.303-1.563,2.495-2.46,3.656
		c-4.904,6.344-12.666,3.89-18.934,6.069c-5.802,2.018-11.724,3.689-17.575,5.571c-0.397,0.127-0.863,0.711-0.916,1.131
		c-0.444,3.532-3.066,2.985-5.559,3.434c-7.35,1.318-14.629,3.032-21.92,4.664c-0.653,0.146-1.188,0.823-2.229,1.584
		c6.068,4.761,6.289,10.848,5.442,16c-3.813,1.897-7.094,2.892-9.566,4.887c-5.992,4.836-11.519,10.242-17.398,15.224
		c-5.712,4.84-8.113,15.588-4.457,23.182c0.984-2.121,1.776-3.84,2.579-5.554c1.284-2.742,3.262-5.249,6.398-3.906
		c2.208,0.946,4.907,3.305,5.281,5.407c0.641,3.601-0.133,7.539-0.849,11.231c-0.18,0.926-2.838,2.379-3.617,2.013
		c-4.712-2.216-6.788,0.233-8.251,4.087c-3.179,8.365-2.512,16.941-0.75,25.397c0.49,2.356,2.341,5.153,4.384,6.329
		c6.704,3.857,7.626,10.508,1.836,15.641c-0.92,0.816-1.754,2.931-1.333,3.857c2.119,4.669,4.233,9.458,7.217,13.576
		c2.003,2.764,5.452,4.48,8.254,6.665c1.405,0.817,1.433,3.076,2.538,4.495c3.636,4.668,3.597,10.096,2.684,15.172
		c-1.252,6.958,3.974,10.914,7.075,14.858c6.116,7.78,16.22,12.487,17.722,24.183c1.5-1.853,2.948-3.695,3.42-5.76
		c1.205-5.273,1.793-10.688,2.984-15.965c0.771-3.415,1.35-7.37,3.448-9.891c4.772-5.731,9.982-11.309,15.875-15.825
		c4.167-3.194,4.871-7.09,6.031-11.428c0.864-3.229,2.662-6.151,7.078-5.287c1.351,0.264,2.836-0.155,4.868-0.307
		c-0.561-3.107-0.709-5.774-1.551-8.201c-1.725-4.97-1.783-9.576,1.417-14.014C950.695,491.938,953.04,488.349,955.717,484.427z
		 M1735.393,678.761c3.715,3.536,8.921,3.517,12.324-0.932c5.927-7.744,13.943-10.599,23.085-11.989
		c4.174-0.636,7.726-2.379,10.658-6.353c4.048-5.485,9.694-9.766,14.426-14.779c3.221-3.412,7.442-6.775,8.688-10.921
		c1.461-4.862,0.437-10.567,0.02-15.87c-0.41-5.234-3.257-7.146-8.565-6.436c-1.131,0.151-2.255,0.35-3.553,0.553
		c-1.822-5.96-3.975-11.667-5.28-17.562c-2.244-10.13-10.839-16.314-15.109-25.175c-0.683-1.415-3.535-1.785-6.411-3.112
		c-0.084-0.55-0.198-2.548-0.718-4.435c-1.303-4.734-1.611-10.374-4.476-13.898c-4.368-5.378-4.757-10.901-4.51-17.056
		c0.126-3.16,0.072-6.33,0.003-9.494c-0.057-2.565-0.257-5.127-0.397-7.769c-8.07,0.941-15.493,1.634-22.85,2.761
		c-2.553,0.392-5.269,1.411-7.336,2.928c-4.558,3.342-9.485,4.312-15,4.313c-8.84,0.004-14.513,5.415-15.749,14.136
		c-0.297,2.093-0.787,4.324-1.833,6.115c-4.198,7.191-4.217,8.797,0.769,15.626c5.762,7.892,3.557,19.383-4.571,25.119
		c-3.445,2.432-6.89,4.72-7.321,9.974c-0.35,4.239-1.501,9.255-4.154,12.314c-10.76,12.411-22.287,24.154-33.377,36.284
		c-1.203,1.316-2.251,3.701-1.945,5.32c1.774,9.38,0.045,17.548-5.848,25.318c-5.414,7.139-9.796,15.061-15.041,23.278
		c2.994-0.271,5.163-0.777,7.262-0.573c2.34,0.229,4.666,0.959,6.907,1.732c3.003,1.037,5.827,2.808,8.896,3.396
		c5.028,0.966,7.958,4.199,7.438,9.251c-0.171,1.656-0.457,3.316-0.442,4.972c0.041,4.705,2.713,6.037,6.823,3.993
		c2.411-1.199,5.264-1.534,7.937-2.179c1.385-0.334,3.068-0.091,4.18-0.797c10.731-6.814,21.313-13.866,32.09-20.607
		c1.88-1.176,4.599-1.995,6.709-1.646c9.282,1.534,18.185-2.188,23.073-10.229C1733.301,682.511,1734.32,680.634,1735.393,678.761z
		 M504.18,799.808c-0.264,0.656-0.529,1.312-0.793,1.968c1.264,1.713,2.289,4.614,3.834,4.925
		c5.381,1.081,10.943,1.266,16.776,1.823c0-4.306-0.291-8.642,0.064-12.924c0.625-7.521,1.795-14.857,11.04-16.938
		c1.453-0.327,2.711-1.518,4.688-2.679c-4.786-2.732-8.497-4.797-9.44-10.563c-0.91-5.567-1.183-7.559,4.311-9.412
		c6.558-2.214,13.175-4.249,20.34-6.546c0-3.406-0.165-7.723,0.083-12.015c0.096-1.644,0.947-3.342,1.795-4.819
		c1.082-1.885,2.944-3.405,3.696-5.378c1.546-4.054,1.867-8.725,4.016-12.358c2.225-3.762,3.409-6.235-0.047-9.978
		c-4.146-4.489-1.795-10.423,4.51-11.47c-1.044-5.107,2.082-10.664-2.641-15.464c-4.222-4.291-8.158-8.969-5.658-15.815
		c0.155-0.423-0.095-0.983-0.114-1.481c-0.432-10.903-1.942-21.561-7.05-31.417c-0.294-0.567-0.641-1.286-0.535-1.854
		c1.508-8.095-4.822-9.652-11.045-13.103c-1.532,4.853-3.314,9.044-4.137,13.415c-1.502,7.983-2.253,16.106-3.71,24.101
		c-0.486,2.664-1.529,5.879-3.45,7.491c-3.724,3.126-3.158,6.098-1.396,9.643c0.889,1.788,1.756,3.595,2.49,5.45
		c2.877,7.269,1.304,12.839-4.926,17.645c-11.854,9.145-25.142,13.885-40.242,13.723c-5.271-0.057-8.874-1.505-10.921-6.661
		c-2.092-5.266-15.293-9.974-20.576-7.783c-7.784,3.229-15.597,6.386-23.443,9.459c-4.854,1.901-20.234-2.11-23.645-6.02
		c-0.219-0.251-0.538-0.505-0.588-0.797c-1.108-6.312-5.754-5.967-10.521-5.844c-2.965,0.077-5.951-0.422-8.919-0.747
		c-3.954-0.432-7.142,0.642-9.552,4.031c-4.259,5.992-3.143,16.627,3.274,21.391c3.236,2.402,3.328,4.762,3.158,7.996
		c-0.071,1.352,0.668,2.806,1.254,4.117c0.843,1.886,2.022,3.626,2.795,5.534c0.642,1.587,0.451,4.402,1.415,4.81
		c3.884,1.637,6.724,4.244,9.906,6.884c3.249,2.695,8.669,2.773,13.423,4.074c0.859,7.254-5.373,14.046-14.2,14.834
		c-1.492,0.134-3.29,0.608-4.316,1.587c-6.771,6.453-5.534,16.053-10.063,24.771c6.223-0.528,11.469-1.656,16.592-1.245
		c7.102,0.571,11.818-1.615,14.199-8.425c0.954-2.728,2.907-3.199,5.523-2.496c2.547,0.686,5.926,2.437,7.612,1.449
		c7.318-4.283,12.771,4.753,19.591,2.159c0.312-0.118,0.908,0.335,1.296,0.623c4.051,3.012,7.808,6.572,12.216,8.901
		c3.478,1.838,6.672,5.545,12.036,1.949c4.215-2.825,7.835-0.05,9.944,5.103c0.541,1.321,2.381,2.771,3.788,2.963
		C493.304,799.13,498.754,799.378,504.18,799.808z M457.375,162.559c-0.443-0.196-0.886-0.394-1.33-0.59
		c-1.36-3.879-2.663-7.779-4.099-11.63c-0.947-2.538-2.29-3.827-4.494-0.936c-10.699,14.032-26.13,18.93-42.55,21.447
		c-3.723,0.571-6.43,1.487-8.919,4.321c-2.372,2.7-5.239,6.411-8.229,6.76c-3.798,0.443-5.448,2.559-7.636,4.601
		c-6.887,6.427-13.954,12.684-20.488,19.454c-2.503,2.595-6.002,7.276-5.141,9.481c2.341,5.995,4.979,11.51,3.016,18.098
		c-0.112,0.377,0.268,0.935,0.49,1.372c4.113,8.118,8.094,16.309,12.447,24.296c1.295,2.376,3.275,4.825,5.572,6.126
		c8.139,4.607,11.742,11.297,9.927,20.354c-0.478,2.383-1.714,4.623-2.68,6.896c-1.308,3.078-1.994,5.959,0.976,8.63
		c5.467,4.918,11.378,8.608,19.109,8.515c2.274-0.028,4.632,0.415,6.82,1.075c5.359,1.618,10.621,3.554,15.961,5.237
		c4.103,1.293,8.253,2.446,12.406,3.573c5.325,1.446,10.042,5.161,16.223,3.653c1.507-0.367,4.062,1.436,5.408,2.906
		c5.417,5.919,10.548,12.1,16.049,18.492c1.261-5.138,2.184-10.478,3.937-15.53c1.369-3.944,0.28-6.82-1.539-10.223
		c-3.608-6.75-9.619-12.122-11.27-20.012c-0.458-2.188-1.847-4.176-2.771-6.271c-1.581-3.586-4.416-7.169-4.461-10.782
		c-0.155-12.259,0.474-24.543,1.255-36.788c0.258-4.038,1.854-7.996,2.898-11.976c0.823-3.136,2.631-4.703,6.141-4.172
		c3.271,0.495,5.335-0.837,5.778-4.472c0.534-4.383,1.417-8.723,2.169-13.201c1.935-0.188,3.543-0.343,5.316-0.515
		c0.443-2.569,0.857-4.996,1.28-7.421c1.515-8.677,3.595-17.07,10.615-23.271c1.602-1.415,3.266-3.032,4.174-4.908
		c2.544-5.257,6.955-7.51,12.185-9.352c3.596-1.266,6.699-3.93,9.778-5.819c-3.603-2.743-6.274-4.576-8.714-6.677
		c-5.405-4.652-6.939-4.747-12.358-0.402c-0.608,0.486-1.469,1.109-2.123,1.019c-8.401-1.167-17.372,3.303-25.314-2.503
		c-0.145-0.106-0.583,0.189-0.884,0.298c-1.203,1.672-3.033,3.901-4.322,3.623C462.129,154.072,458.221,155.36,457.375,162.559z
		 M1638.369,647.017c-4.702,3.044-9.284,5.479-13.231,8.692c-5.64,4.592-12.062,6.193-19.015,6.281
		c-3.668,0.046-6.817-1.232-8.566-4.902c-1.791-3.76-1.141-8.722-5.569-11.258c-0.392-0.225,0.163-1.859,0.012-2.796
		c-0.306-1.885-0.438-5.131-1.276-5.347c-2.596-0.669-6.592-1.336-8.068,0.071c-5.062,4.82-10.941,5.092-17.165,5.013
		c-1.96-0.025-4.587-0.702-5.766,0.284c-4.564,3.818-9.535,7.614-12.751,12.478c-5.554,8.399-13.121,13.273-22.27,16.456
		c-2.144,0.746-4.42,1.657-6.093,3.115c-6.446,5.616-15.112,8.08-19.327,17.145c-2.979,6.404-10.407,9.831-18.224,10.734
		c-4.76,0.55-9.364,2.488-14.124,2.978c-5.702,0.585-11.496,0.424-17.246,0.324c-3.139-0.054-6.281-1.042-9.396-0.923
		c-8.145,0.31-11.236,3.702-11.312,11.553c-0.044,4.656,0.123,9.367-0.524,13.952c-0.783,5.55-1.478,11.193-6.77,15.05
		c-3.167,2.308-5.364,5.687-4.209,10.247c0.861,3.397,1.35,6.893,1.925,10.357c0.428,2.576,0.831,5.165,1.065,7.765
		c0.441,4.875,0.772,9.761,1.107,14.645c0.143,2.077-0.386,4.401,0.372,6.199c2.378,5.645,5.223,11.093,8.078,17.012
		c1.489-2.042,3.966-4.405,5.168-7.298c2.673-6.438,7.878-9.522,13.739-12.267c6.312-2.954,13.265-5.332,18.459-9.714
		c10.084-8.506,21.146-12.474,34.202-13.052c4.676-0.208,9.718-3.091,13.657-6.013c4.195-3.111,7.208-7.787,10.875-11.647
		c3.466-3.649,7.125-7.16,12.687-7.046c12.012,0.247,22.424-4.35,32.136-10.801c1.949-1.295,3.977-3.384,4.658-5.523
		c3.488-10.953,11.086-17.789,21.613-20.963c8.808-2.656,16.583-6.787,21.796-14.1c6.612-9.274,12.042-19.386,18.119-29.05
		C1640.604,659.154,1641.26,653.544,1638.369,647.017z M482.34,825.757c-1.014-11.363-4.736-14.242-15.669-12.832
		c-2.886,0.372-5.682,0.61-7.56-2.977c-0.828-1.581-3.796-2.355-5.943-2.866c-4.292-1.021-8.66-1.897-13.046-2.297
		c-5.422-0.492-10.958-0.977-16.314-0.353c-2.099,0.244-4.328,3.226-5.608,5.468c-1.07,1.873-0.891,4.481-1.184,6.774
		c-0.711,5.554-6.235,11.393-11.864,11.169c-4.91-0.195-7.011,1.973-9.652,5.672c-2.886,4.041-4.298,10.661-11.638,10.012
		c-0.515-0.046-1.78,2.229-1.759,3.409c0.069,3.944,1.47,8.064,0.716,11.783c-1.785,8.807-4.228,17.517-7.062,26.048
		c-0.733,2.206-3.968,3.527-5.906,5.408c-1.018,0.987-2.327,2.246-2.448,3.485c-0.507,5.191-3.556,8.192-7.725,10.755
		c-1.465,0.901-2.175,3.031-3.526,5.04c7.992,0.966,14.822,1.791,20.493,2.477c1.619,3.664,2.378,6.657,4.103,8.91
		c1.57,2.051,4.801,2.889,6.207,4.992c2.246,3.361,4.853,4.55,8.729,4.268c1.423-0.104,2.946,0.939,4.399,1.521
		c2.757,1.102,5.41,2.718,8.267,3.247c3.062,0.567,6.357-0.191,9.456,0.267c1.524,0.226,3.681,1.639,4.078,2.958
		c1.017,3.378,1.208,7.004,1.967,12.137c3.507-1.83,6.806-2.856,9.186-4.935c5.466-4.772,11.919-5.487,18.184-3.899
		c8.478,2.149,16.63,1.989,24.961,0.001c10.017-2.392,14.85,0.146,19.228,9.722c0.95,2.078,2.442,3.909,4.142,6.571
		c1.583-1.92,2.307-3.524,3.534-4.159c4.867-2.519,4.553-6.54,3.97-11.023c-0.698-5.375-1.378-10.824-1.236-16.219
		c0.197-7.466-0.214-15.39,2.164-22.239c2.838-8.176,2.09-14.795-2.338-21.686c-1.795-2.793-3.491-5.736-4.632-8.833
		c-0.874-2.369-1.178-5.103-1.063-7.643c0.147-3.248,0.907-6.479,1.529-9.691c0.311-1.603,0.575-3.361,1.426-4.687
		c3.613-5.624,7.438-11.111,11.468-17.066C510.487,827.837,494.516,823.067,482.34,825.757z M449.526,494.229
		c-1.733,10.688-2.15,12.338-9.068,18.323c-6.621,5.728-7.974,12.156-4.868,19.991c0.919,2.317,2.249,4.686,2.338,7.07
		c0.144,3.807-0.202,7.74-1.08,11.444c-0.713,3.01-3.164,5.642-3.718,8.648c-2.409,13.062-0.694,25.266,7.169,36.596
		c2.401,3.459,3.217,8.694,3.104,13.073c-0.203,7.886-6.23,11.515-12.792,14.318c-1.707,0.729-4.628,2.717-4.475,3.086
		c2.337,5.652-0.232,12.342,4.994,17.616c6.689,6.75,9.846,15.763,1.541,23.729c-7.835,7.517-15.825,14.872-24.21,22.733
		c0.343,0.483,1.09,2.783,2.443,3.225c5.943,1.939,12.116,4.776,18.101,4.548c6.401-0.245,13.422-2.403,18.831-5.839
		c6.605-4.195,12.396-4.76,19.652-2.744c4.905,1.363,8.424,3.04,10.56,7.859c0.867,1.958,3.165,4.259,5.125,4.599
		c12.701,2.2,24.597-0.661,35.049-7.984c14.784-10.357,14.669-10.614,7.842-27.422c-1.423-3.503-1.748-6.179,2.059-8.492
		c1.496-0.909,2.679-3.045,3.121-4.84c1.149-4.666,2.044-9.425,2.607-14.198c0.754-6.382,0.016-13.156,1.916-19.128
		c2.053-6.457,2.717-12.476,1.209-18.909c-1.48-6.315-3.489-12.545-8.749-16.66c-6.132-4.798-13.073-8.578-19.1-13.491
		c-9.131-7.444-19.766-11.577-30.579-15.549c-1.372-0.504-2.927-1.456-3.639-2.651c-4.257-7.157-4.169-15.449-3.454-23.043
		c1.01-10.73,1.971-20.386-9.213-26.622c-2.37-1.321-3.912-4.051-6.127-5.751C454.31,496.378,452.068,495.558,449.526,494.229z
		 M1394.193,603.358c3.391,6.172,1.356,15.168,10.455,17.973c1.033,0.318,1.795,1.906,2.434,3.045
		c2.693,4.802,5.075,9.791,7.98,14.457c3.597,5.776,3.152,11.217-3.479,13.992c-6.802,2.847-8.321,9.294-10.217,14.712
		c-1.715,4.899-0.662,10.894-0.267,16.364c0.313,4.339,1.685,7.931,5.57,11.293c5.337,4.616,12.554,7.171,16.055,13.938
		c1.179,2.28,2.959,2.305,4.844,0.452c6.104-6.004,13.448-6.525,21.368-4.886c3.061,0.635,6.354,1.43,9.335,0.928
		c9.979-1.679,20.216-2.931,29.641-6.326c5.023-1.811,8.636-7.638,12.772-11.765c1.829-1.824,3.023-4.496,5.117-5.806
		c8.11-5.071,15.55-11.412,25.147-13.835c1.383-0.35,2.778-1.265,3.812-2.281c7.388-7.263,14.8-14.511,21.888-22.061
		c1.122-1.194,1.105-3.951,0.835-5.875c-1.251-8.87,0.241-16.816,8.215-21.899c3.227-2.058,7.586-2.25,11.153-3.891
		c2.326-1.069,5.197-2.889,5.862-4.992c0.487-1.544-2.166-4.122-3.516-6.176c-0.343-0.521-1.012-0.875-1.596-1.182
		c-6.195-3.256-8.764-8.771-9.833-15.348c-0.31-1.906-0.813-4.021-1.935-5.508c-3.247-4.304-6.747-8.432-10.372-12.426
		c-1.399-1.541-3.272-2.792-5.152-3.729c-5.937-2.96-12.293-5.205-17.882-8.695c-4.718-2.946-8.813-7.029-12.738-11.043
		c-1.65-1.688-2.68-4.414-3.048-6.813c-0.445-2.909,0.812-6.166,0.052-8.92c-0.999-3.618-2.495-7.693-5.113-10.146
		c-5.062-4.74-11.028-8.522-16.688-12.604c-1.29-0.931-2.863-1.468-5.031-2.547c1.763,4.124,2.737,7.348,4.437,10.129
		c1.975,3.232,4.101,7.891,7.03,8.672c4.562,1.216,5.508,3.795,5.563,7.173c0.084,5.111-0.321,10.263-0.94,15.346
		c-0.573,4.7-1.701,9.333-2.6,14.074c-5.593-1.615-13.068,3.86-12.181,8.463c1.142,5.911,3.108,11.683,5.035,17.408
		c0.598,1.775,1.878,3.82,3.434,4.689c7.802,4.357,11.953,11.803,16.585,18.854c0.579,0.882,0.923,2.261,0.709,3.269
		c-1.598,7.532-2.799,15.22-5.238,22.483c-2.366,7.046-10.224,9.595-16.402,5.695c-0.182,3.138-0.347,5.967-0.53,9.135
		c-1.215-0.425-2.106-1.09-2.677-0.881c-9.319,3.415-18.772,0.833-28.158,0.702c-5.391-0.075-8.273-3.287-9.086-8.684
		c-0.313-2.079-1.794-4.114-3.132-5.872c-1.502-1.973-3.387-3.671-5.209-5.378c-3.175-2.977-4.99-7.29-9.54-8.981
		c-1.862-0.692-3.648-2.357-4.802-4.039c-2.669-3.893-4.986-7.82-10.528-8.057C1412.539,605.572,1403.187,607.807,1394.193,603.358z
		 M1688.342,543.983c0.649,0.024,1.3,0.049,1.949,0.072c0.765-2.406,1.881-4.763,2.233-7.228c1.388-9.703,7.54-15.201,17.247-16
		c4.37-0.36,8.665-1.901,12.939-3.1c5.376-1.507,10.632-3.483,16.057-4.752c5.32-1.244,10.814-1.73,16.171-2.844
		c1.091-0.227,2.756-1.799,2.716-2.687c-0.219-4.892,0.295-10.319-1.678-14.512c-2.882-6.125-7.247-11.723-11.772-16.845
		c-3.121-3.533-7.772-5.671-11.354-8.865c-1.479-1.318-2.562-3.712-2.755-5.72c-0.636-6.587,0.148-13.446-1.381-19.773
		c-1.465-6.058-5.021-11.641-7.938-17.289c-0.583-1.131-2.406-2.258-3.679-2.282c-4.228-0.079-5.274-3.083-6.909-6.069
		c-3.094-5.65-5.462-12.696-10.287-16.15c-6.252-4.475-10.571-9.549-13.339-16.302c-1.212-2.957-3.193-2.911-5.616-2.388
		c-6.395,1.38-7.886,0.318-7.897-6.021c-0.004-2.114,0.217-4.354,0.929-6.322c3.491-9.635-2.54-16.103-7.344-24.262
		c-3.646,7.629-8.067,13.955-9.59,20.915c-1.453,6.646-5.116,11.419-8.658,16.505c-2.778,3.987-6.392,7.094-11.67,7.813
		c-1.792,0.244-3.578,1.646-5.053,2.893c-3.254,2.752-6.121,5.986-9.501,8.556c-2.7,2.053-3.428,4.048-2.281,7.242
		c1.849,5.146,5.039,8.33,10.092,10.895c4.673,2.372,8.993,6.437,11.953,10.787c1.616,2.376,1.162,6.207,3.993,8.8
		c7.231,6.625,5.364,9.595-2.75,16.043c-1.008,0.801-2.553,0.916-3.588,1.695c-0.783,0.589-1.763,1.858-1.605,2.604
		c1.221,5.788,2.755,11.509,4.077,17.276c1.552,6.768,3.356,13.054-2.738,19.393c-6.422,6.68-1.949,16.751,7.341,18.068
		c6.078,0.862,12.206,1.492,18.333,1.854c4.915,0.289,8.596,1.703,10.384,6.809c0.738,2.106,2.29,4.132,3.956,5.669
		C1683.9,532.68,1689.425,536.168,1688.342,543.983z M1584.854,633.196c2.467,0.731,4.678,0.866,6.173,1.97
		c1.694,1.252,4.099,3.603,3.847,5.072c-1.036,6.036,4.033,9.75,4.969,14.959c0.215,1.192,2.309,2.7,3.711,2.911
		c5.602,0.843,11.253,1.28,16.418-2.042c19.135-12.309,36.595-26.572,50.775-44.476c3.337-4.213,7.136-9.12,7.837-14.113
		c1.077-7.663,4.402-12.428,10.837-16.009c3.752-2.087,6.811-13.802,4.252-17.182c-5.499-7.264-6.815-15.66-8.113-24.228
		c-0.258-1.702-1.637-3.341-2.784-4.783c-3.188-4.007-7.073-7.573-9.63-11.931c-2.073-3.533-4.449-4.822-8.265-5.176
		c-7.584-0.704-15.126-1.864-22.696-2.735c-1.43-0.165-3.057-0.232-4.345,0.279c-6.422,2.554-12.736,5.375-19.138,7.981
		c-3.517,1.432-5.793,3.438-5.979,7.646c-0.078,1.765-1.255,4.286-2.686,5.047c-6.391,3.397-12.833,8.077-19.671,8.914
		c-9.131,1.119-18.728,0.995-27.76-3.669c-3.748-1.936-9.54-1.896-13.704-0.567c-5.943,1.898-11.245,5.809-17.139,9.033
		c0.971,0.693,2.517,2.132,4.33,3.026c4.626,2.283,9.508,4.074,14.019,6.551c2.833,1.555,5.398,3.775,7.698,6.081
		c3.709,3.72,7.127,7.733,10.606,11.678c0.721,0.817,1.573,1.833,1.679,2.829c0.976,9.241,5.367,16.169,13.431,20.856
		c2.829,1.645,3.296,4.068,2.292,7.314c-0.841,2.719-1.803,6.333-0.695,8.537C1587.965,622.628,1589.182,627.811,1584.854,633.196z
		 M618.31,829.401c-2.279,4.053-3.565,6.878-5.35,9.344c-1.462,2.019-3.22,4.469-5.37,5.212c-4.799,1.659-9.877,2.846-14.929,3.361
		c-8.408,0.857-13.962,4.994-18.04,12.287c-2.971,5.313-11.222,6.397-13.315,1.814c-2.847-6.233-8.569-9.152-13.271-12.623
		c-6.748-4.981-7.132-10.331-5.266-17.219c0.998-3.686-1.651-6.269-5.146-4.583c-5.105,2.464-9.525,6.526-14.769,8.485
		c-7.283,2.722-12.783,6.595-15.563,14.055c-0.727,1.95-3.218,3.485-3.396,5.354c-0.841,8.812-3.741,17.999,3.374,25.853
		c1.085,1.197,1.572,2.922,2.411,4.358c2.946,5.046,3.191,10.218,1.633,15.854c-4.461,16.134-4.347,32.408-0.906,49.416
		c2.827-0.503,5.556-0.483,7.833-1.488c7.344-3.242,14.837-5.156,22.949-5.004c3.911,0.073,8.009-0.404,11.727-1.574
		c5.82-1.832,10.606-1.406,13.264,3.745c3.007,5.829,7.914,6.43,13.183,6.913c7.073,0.648,7.808,1.165,9.42,8.447
		c7.686-2.964,15.299-5.898,23.282-8.977c-0.976-1.636-1.745-3.088-2.665-4.437c-3.328-4.877-3.159-9.905,0.339-14.333
		c3.158-3.998,2.381-7.681,0.565-11.605c-0.969-2.095-2.204-4.066-3.292-6.107c-3.123-5.854-1.612-11.729,3.557-15.729
		c5.773-4.467,11.678-8.876,16.827-14.012c6.734-6.716,12.969-13.966,19.027-21.309c2.121-2.57,3.942-5.976,4.4-9.212
		c1.059-7.475-8.922-17.354-17.065-17.703C627.876,837.734,622.047,837.247,618.31,829.401z M334.816,504.182
		c-0.042-12.202,8.249-16.092,16.415-20.219c2.18-1.102,4.713-2.493,5.85-4.464c2.24-3.887,6.304-8.186,3.471-12.81
		c-4.767-7.781-10.644-14.875-15.855-22.396c-1.572-2.269-3.274-4.91-3.557-7.527c-1.112-10.298-5.092-19.515-9.196-28.842
		c-1.303-2.96-1.619-8.119,0.105-10.315c5.252-6.689,4.68-13.38,2.382-20.536c-1.162-3.619-2.909-7.067-3.866-10.73
		c-1.777-6.804-2.195-13.295,4.254-18.508c2.772-2.24,5.262-5.321,6.756-8.541c2.634-5.681,6.388-11.142,6.268-18.47
		c-7.37,1.273-14.565,1.071-20.084,6.178c-8.903,8.236-18.971,7.274-29.442,4.192c-3.5-1.03-7.038-2.036-10.628-2.631
		c-7.351-1.218-13.898,4.227-15.794,11.316c-1.574,5.881-4.796,11.307-7.049,17.028c-1.168,2.966-2.872,6.261-2.52,9.19
		c1.326,11.037,3.666,21.951,5.068,32.982c0.671,5.277,0.55,10.51,3.828,15.179c1.142,1.627,1.545,4.142,1.437,6.206
		c-0.306,5.821,1.918,10.702,4.852,15.428c3.235,5.212,6.322,10.522,9.745,15.608c3.38,5.023,4.213,10.348,2.829,16.116
		c-2.116,8.814,0.152,12.857,8.649,16.178c2.566,1.003,5.586,2.302,7.033,4.404c2.989,4.346,7.349,5.712,11.758,7.565
		C322.963,498.052,328.163,500.908,334.816,504.182z M428.969,459.419c2.488-6.186,4.55-11.194,6.508-16.243
		c0.649-1.674,0.881-3.513,1.56-5.172c2.706-6.618,5.502-13.2,8.306-19.778c0.175-0.411,0.697-0.963,1.058-0.963
		c6.068-0.001,6.039-5.198,7.554-8.947c1.537-3.804,2.043-8.22,4.271-11.506c3.964-5.848,4.509-12.565,4.467-18.791
		c-0.069-10.219,0.761-19.677,7.565-27.802c0.312-0.372,0.689-0.863,0.685-1.296c-0.02-2.146,0.633-4.834-0.397-6.34
		c-3.435-5.018-7.242-9.848-11.436-14.244c-1.532-1.606-4.505-1.954-6.896-2.593c-2.677-0.715-5.485-0.94-8.157-1.667
		c-15.369-4.18-30.699-8.501-46.103-12.548c-0.978-0.257-3.428,1.269-3.549,2.183c-0.821,6.187-2.676,12.766-1.358,18.574
		c1.759,7.751,0.303,13.771-3.545,20.269c-2.967,5.01-6.834,10.243-5.194,16.692c1.101,4.331-0.211,7.717-2.4,11.257
		c-4.281,6.924-8.203,14.07-12.484,20.993c-3.119,5.042-3.123,10.291-0.721,15.262c2.635,5.454,6.266,10.417,9.209,15.735
		c5.37,9.704,14.078,15.754,23.082,21.498c2.495,1.592,5.041,3.847,7.766,4.191C415.937,459.093,423.228,459.119,428.969,459.419z
		 M324.264,663.106c0.579-0.146,1.158-0.291,1.737-0.438c0,2.979,0.215,5.976-0.052,8.93c-0.367,4.053,1.547,6.606,5.176,7.271
		c4.351,0.797,8.846,1.009,13.285,1.084c9.017,0.154,9.118,0.131,10.572,9.126c0.053,0.326,0.011,0.666,0.026,0.999
		c0.151,3.359,2.102,4.614,5.237,4.436c3.156-0.18,6.359-0.125,9.449-0.685c1.991-0.36,4.708-1.124,5.56-2.598
		c3.938-6.816,9.851-6.52,16.507-6.176c5.678,0.293,11.639-0.228,17.112-1.719c8.27-2.253,13.835-8.852,19.981-14.46
		c8.599-7.847,8.111-14.033,0.373-23.714c-1.924-2.406-3.624-5.562-3.984-8.547c-1.492-12.359-11.377-23.105-23.788-24.476
		c-8.203-0.905-14.7-4.618-20.683-10.014c-3.931-3.543-8.314-6.633-12.744-9.548c-1.489-0.979-4.111-1.637-5.592-0.997
		c-8.413,3.637-17.037,2.324-25.608,1.522c-2.523-0.236-5.164-1.337-7.346-2.692c-5.395-3.351-6.939-3.34-11.506,1.495
		c-4.208,4.454-9.244,6.862-15.428,7.137c-2.237,0.099-5.498,0.314-6.464,1.727c-3.44,5.03-6.093,10.599-9.412,16.63
		c6.698,1.391,13.686-2.338,16.574,5.311c2.056,5.445,4.058,10.912,6.084,16.369c-0.067,1.082,1.677,1.254,2.148,2.119
		c3.008,5.523,5.627,11.258,8.619,16.791C321.126,659.891,322.855,661.412,324.264,663.106z M377.864,466.34
		c-4.871,1.176-12.6,0.367-14.842,6.617c-2.918,8.131-8.429,12.146-15.414,15.762c-12.447,6.445-13.243,16.877-1.482,24.425
		c9.079,5.825,12.3,13.535,12.271,23.906c-0.021,7.506,1.192,14.953,5.747,21.632c3.909,5.731,6.723,12.203,10.139,18.282
		c0.766,1.363,1.82,3.187,3.086,3.531c4.133,1.127,8.405,2.146,12.662,2.331c8.091,0.352,16.212,0.236,24.314,0.056
		c8.27-0.185,12.371-3.482,14.476-11.483c0.671-2.551,0.613-5.284,1.143-7.883c0.585-2.864,0.721-6.232,2.356-8.395
		c4.793-6.334,4.807-12.721,1.928-19.642c-4.51-10.84-3.055-19.969,7.369-26.88c3.521-2.334,6.073-12.89,4.056-15.915
		c-5.719-8.576-9.729-17.878-12.771-27.673c-0.34-1.094-1.486-2.647-2.394-2.746c-9.788-1.063-19.743-1.661-28.944,2.339
		c-4.454,1.938-8.554,3.344-13.357,2.698C385.077,466.882,381.91,466.707,377.864,466.34z M265.011,337.349
		c0.542,0.302,1.084,0.604,1.626,0.905c2.001-1.921,4.44-3.557,5.917-5.82c3.534-5.417,8.184-7.533,14.471-6.249
		c6.358,1.3,12.78,2.338,19.065,3.923c5.95,1.499,11.137,1.218,16.536-2.395c5.142-3.44,10.904-6.259,16.769-8.241
		c8.128-2.748,16.966-3.596,24.832-6.866c7.419-3.085,13.45-8.624,14.833-17.551c0.265-1.709,1.455-3.301,2.333-4.882
		c4.615-8.308,2.503-16.481-4.972-21.817c-3.246-2.316-6.296-5.454-8.272-8.889c-4.053-7.042-7.45-14.477-10.833-21.88
		c-1.005-2.2-1.65-4.891-1.423-7.258c0.412-4.297-3.725-14.324-7.15-15.241c-8.644-2.314-16.257-0.199-22.963,5.678
		c-7.737,6.779-15.64,13.371-23.294,20.241c-1.507,1.353-2.415,3.51-3.25,5.446c-1.654,3.831-2.304,8.356-4.753,11.523
		c-3.691,4.771-9.616,7.975-12.727,12.999c-6.544,10.569-11.904,21.874-17.662,32.923c-0.56,1.073-0.821,2.504-0.676,3.703
		c0.366,3.021,1.416,5.992,1.52,9.006C265.173,323.514,265.011,330.434,265.011,337.349z M972.211,188.989c4.27,0,8.229,0,12.319,0
		c1.005-4.661,2.551-8.259,8.052-8.664c1.256-0.093,3.234-3.276,3.249-5.05c0.058-7.427-0.435-14.863-0.915-22.284
		c-0.074-1.139-1.053-2.276-1.771-3.306c-3.053-4.375-5.955-8.711-5.243-14.53c0.205-1.672-0.282-3.839-1.289-5.12
		c-0.819-1.043-3.91-1.905-4.25-1.474c-4.105,5.21-13.097,3.337-15.614,10.834c-0.21,0.626-2.37,0.511-3.569,0.907
		c-3.504,1.159-7.8,1.525-10.271,3.827c-3.444,3.209-5.991,3.342-9.443,0.854c-0.747-0.538-1.85-0.554-2.685-1.002
		c-5.85-3.143-13.929-1.683-17.096-7.673c-4.979,0-9.135-0.263-13.238,0.089c-2.944,0.253-7.092,0.362-8.495,2.211
		c-5.05,6.656-11.666,4.605-17.728,3.844c-3.926-0.494-6.039,0.198-8.258,3.347c-4.125,5.853-4.941,13.597-11.113,18.407
		c-1.354,1.055-0.582,4.944-0.632,7.531c-0.043,2.265,0.691,4.689,0.108,6.771c-1.588,5.666-0.204,9.94,4.433,11.827
		c5.443,2.215,6.728,6.584,3.682,11.81c-0.879,1.508-1.179,3.353-1.586,4.569c5.444,2.238,10.008,4.115,14.576,5.994
		c-1.754,2.21-2.063,4.237,1.741,4.299c2.739,0.045,5.642-0.077,8.204-0.93c6.612-2.202,12.978-5.177,19.639-7.187
		c3.59-1.083,7.586-0.816,12.655-1.271c-2.224,3.154-3.313,4.699-5.005,7.1c6.196,0.255,11.406-0.159,15.228-4.077
		c5.346-5.482,7.089-5.993,13.721-1.869c-6.769,5.807-7.458,8.599-3.191,12.736c1.441-0.828,2.774-1.979,4.311-2.411
		c6.668-1.878,12.292-5.638,15.711-11.372c2.888-4.845,8.709-9.756,3.596-16.626C971.823,190.803,972.104,190.134,972.211,188.989z
		 M574.396,735.229c-0.465-0.226-0.929-0.45-1.394-0.676c0,2.146-0.737,4.66,0.123,6.375c4.704,9.382-0.963,12.573-8.011,16.921
		c-6.61,4.078-13.858,8.183-17.725,15.905c-2.624,5.239-6.268,9.96-9.211,15.054c-0.551,0.953-0.407,2.887,0.222,3.828
		c1.654,2.474,3.528,4.902,5.738,6.875c2.226,1.985,3.892,3.342,1.258,6.393c-1.065,1.233-1.726,4.487-0.939,5.375
		c4.681,5.277,2.451,9.521-0.747,13.801c0.733,2.945,0.97,5.885,0.681,8.771c-0.493,4.916-0.365,8.798,4.326,12.575
		c4.801,3.865,10.904,6.343,14.035,12.594c2.201,4.393,6.535,3.339,10.007-1.029c2.923-3.678,5.872-8.266,9.866-9.957
		c7.083-3,15.013-3.947,22.484-6.113c2.048-0.594,4.407-2.065,5.445-3.828c3.341-5.67,5.916-11.575,10.981-16.339
		c8.662-8.146,7.423-17.826-2.542-23.485c3.359-3.156,6.833-6.013,9.768-9.343c1.56-1.771,2.853-4.299,3.076-6.601
		c0.312-3.211-0.667-6.525-0.771-9.806c-0.15-4.741-0.001-9.492,0.004-14.238c0.004-3.722-1.848-5.105-5.567-5.462
		c-1.934-0.186-3.872-2.056-5.478-3.525c-2.355-2.155-4.035-5.305-6.694-6.806c-3.437-1.941-5.864-3.481-5.557-8.092
		c0.135-2.031-1.672-4.641-3.317-6.254c-4.644-4.554-16.417-4.678-21.606,1.191C580.64,731.836,577.25,733.296,574.396,735.229z
		 M1626.58,135.041c-4.453-4.679-10.079-4.573-15.835,1.273c-2.587,2.628-5.632,2.229-8.467-0.178
		c-1.359-1.154-2.915-2.792-4.461-2.884c-5.783-0.342-11.6-0.137-17.253-0.137c0.428,2.586,0.168,5.176,1.284,6.843
		c1.958,2.922,1.331,5.214,0.083,8.025c-0.647,1.459-0.904,4.476-0.174,4.935c4.312,2.706,3.006,6.773,3.267,10.532
		c0.256,3.683-1.939,4.98-5.01,5.509c-1.246,0.214-2.522,0.25-3.724,0.36c-0.625,8.159,2.741,14.507,7.732,16.577
		c5.53,2.293,11.02,4.894,16.042,8.114c2.591,1.661,4.156,4.94,6.136,7.526c1.092,1.428,1.813,3.854,3.162,4.248
		c6.604,1.931,13.136,3.907,19.273,7.123c1.177,0.616,3.003-0.146,4.437,0.163c1.281,0.276,2.941,0.84,3.552,1.824
		c2.254,3.632,5.473,3.908,9.353,4.202c8.349,0.632,15.48-0.666,19.995-8.584c0.129-0.228,0.569-0.276,0.719-0.344
		c0.938,1.244,1.863,2.473,2.789,3.701c0.187-0.698,0.373-1.397,0.559-2.096c3.73-1.77,7.447-3.566,11.201-5.285
		c0.729-0.334,1.594-0.483,2.403-0.512c4.277-0.146,5.622-2.415,5.423-6.51c-0.268-5.484-0.059-10.992-0.068-16.49
		c-0.015-7.266-1.237-8.599-8.25-9.217c-4.332-7.188-7.465-14.571-7.061-23.202c0.115-2.45-1.714-4.984-2.614-7.493
		c-0.488-1.36-1.713-3.298-1.215-4.036c3.626-5.366,2.14-11.314,1.883-16.934c-0.11-2.413-2.521-6.378-4.425-6.731
		c-5.104-0.946-10.5-0.322-15.463-0.322c-1.044,4.427-2.302,8.186-2.732,12.037c-0.423,3.774-2.438,4.319-5.646,4.713
		C1638.215,132.44,1633.036,133.759,1626.58,135.041z M404.789,459.681c-2.099-1.523-3.92-2.688-5.563-4.065
		c-6.705-5.623-14.042-10.697-19.818-17.16c-5.096-5.7-8.875-12.749-12.391-19.635c-2.583-5.059-3.472-10.952-0.721-16.413
		c2.383-4.729,5.401-9.135,8.077-13.719c4.204-7.201,9.466-13.763,7.563-23.333c-1.153-5.799,1.754-11.392,5.999-15.789
		c3.225-3.342,5.169-7.403,3.831-11.781c-2.841-9.291-2.412-18.283,1.083-27.169c-3.2-2.332-6.342-4.239-9.005-6.671
		c-2.641-2.41-4.817-2.08-6.789,0.371c-6.017,7.477-14.035,11.548-23.105,13.836c-2.619,0.66-3.382,1.944-3.887,4.728
		c-1.804,9.94-5.355,19.614-13.116,26.194c-5.145,4.362-6.208,8.534-4.612,14.27c1.915,6.881,3.904,13.743,5.937,20.591
		c1.177,3.966,0.699,7.422-2.116,10.672c-3.336,3.851-3.991,8.372-1.968,13.07c1.245,2.892,3.171,5.519,4.188,8.472
		c1.803,5.24,3.202,10.623,4.658,15.978c0.771,2.835,0.571,6.218,2.081,8.519c5.469,8.336,11.393,16.383,17.385,24.357
		c0.769,1.024,2.976,1.438,4.477,1.36c6.414-0.335,12.89-1.822,19.194-1.249C393.125,465.745,398.899,464.316,404.789,459.681z
		 M683.05,914.641c0.858,1.355,1.839,2.905,3.598,5.684c0.792-7.634,5.53-6.375,9.567-6.291c3.514,0.072,7.37-1.116,10.07,2.533
		c2.504,3.383,5.032,6.766,7.815,9.914c1.279,1.447,3.778,3.652,4.717,3.237c3.603-1.593,9.027-3.582,9.691-6.388
		c1.471-6.224,1.35-12.934-4.616-18.261c-3.655-3.264-5.893-8.163-8.587-12.44c-2.431-3.858-4.617-7.87-6.51-11.124
		c0.198-1.889,1.215-4.362,0.424-5.283c-3.855-4.491-8.107-8.658-12.394-12.757c-2.41-2.304-4.921-2.015-6.991,0.722
		c-4.334,5.733-13.091,5.25-18.03-0.179c-2.487-2.733-6.326-4.866-9.934-5.798c-5.049-1.304-9.311,0.968-12.107,5.687
		c-4.97,8.389-13.411,13.783-18.513,22.409c-3.418,5.778-10.5,9.529-16.264,13.747c-7.764,5.682-8.651,9.287-3.363,17.172
		c4.306,6.421,3.93,11.836-0.024,18.51c-1.256,2.12-1.489,6.314-0.193,8.146c2.113,2.988,3.569,8.804,8.891,6.934
		c5.865-2.06,11.856-4.686,16.7-8.466c4.586-3.579,8.061-8.759,11.473-13.621c4.654-6.632,10.943-10.275,18.683-11.681
		C672.254,916.121,677.407,915.483,683.05,914.641z M262.998,450.94c-1.492,11.137-2.772,20.689-4.071,30.38
		c1.505,0.511,2.792,0.947,4.073,1.382c0,1.491,0.227,2.71-0.037,3.812c-1.592,6.64-5.021,12.825-4.841,19.918
		c0.019,0.719-0.572,1.557-1.084,2.169c-5.383,6.446-10.814,12.854-16.204,19.294c-0.348,0.416-0.466,1.023-0.916,2.059
		c1.952-0.252,3.331-0.431,4.985-0.645c-0.478,5.697,4.477,2.711,7.221,4.368c0,2.277,0,4.704,0,7.655
		c11.265-1.216,16.922-10.112,25.06-15.456c-3.015,5.854-6.029,11.708-9.044,17.563c2.034-0.193,3.312-1.482,4.748-1.691
		c3.204-0.466,8.759-1.551,9.37-0.352c4.253,8.343,12.102,15.995,6.275,27.027c-2.254,4.268-2.743,9.467-4.036,14.242
		c0.441,0.299,0.883,0.598,1.324,0.896c1.7-2.249,3.4-4.498,5.1-6.747c0.532,0.365,1.063,0.729,1.595,1.094
		c-1.191,6.619-2.383,13.238-3.648,20.266c0.977-0.404,1.569-0.456,1.789-0.769c5.689-8.129,8.454-17.472,10.886-26.909
		c0.379-1.472-0.479-3.242-0.68-4.886c-0.434-3.541-1.382-7.134-1.107-10.626c0.787-9.984,0.656-19.159-9.066-25.671
		c-3.023-2.024-5.092-6.219-6.392-9.852c-1.157-3.231-2.748-4.682-5.836-5.823c-7.17-2.651-8.709-6.719-6.228-14.113
		c0.842-2.508,1.654-5.117,1.866-7.729c1.095-13.504,7.233-26.188,5.671-40.26c-0.545-4.91-0.753-9.337-3.541-13.531
		c-3.321-4.998-6.328-10.153-5.643-16.635c0.182-1.719-0.193-3.913-1.172-5.267c-4.783-6.613-3.651-14.231-4.236-21.598
		c-0.274-3.447-1.096-6.852-1.669-10.275c-0.474-0.01-0.947-0.019-1.42-0.027c-1.691,3.153-4.015,6.133-4.943,9.498
		c-1.931,6.994-3.124,14.193-4.365,20.097c0.415,2.1,1.291,3.718,0.835,4.742c-1.532,3.439-3.807,6.554-5.292,10.009
		c-1.515,3.526-3.191,7.258-3.441,10.99c-0.418,6.245-2.269,11.608-6.332,16.286c-0.93,1.071-1.774,2.216-2.659,3.326
		c0.229,0.453,0.459,0.906,0.688,1.359C244.84,457.519,253.1,454.526,262.998,450.94z M1381.088,795.495
		c-0.138,2.216,0.477,4.735-0.511,6.069c-4.35,5.878-9.114,11.454-13.858,17.028c-0.666,0.781-2.298,0.697-3.066,1.442
		c-2.287,2.219-4.994,4.337-6.371,7.079c-1.749,3.485-2.207,7.597-3.494,11.344c-1.302,3.792,0.579,6.832,4.561,6.172
		c2.032-0.338,3.768-2.296,5.705-3.403c2.16-1.234,4.304-3.032,6.619-3.339c4.134-0.548,7.798-1.212,10.291-5.046
		c0.719-1.105,2.345-2.211,3.608-2.277c8.227-0.428,16.242-1.744,24.373-3.205c10.969-1.97,18.56-9.592,16.438-20.531
		c-0.573-2.953-3.064-5.487-3.995-8.43c-1.041-3.289-1.528-6.803-1.849-10.257c-0.318-3.43,0.08-6.925-0.216-10.359
		c-0.405-4.698-1.468-9.35-1.699-14.049c-0.259-5.283-1.225-6.428-6.216-5.093c-1.803,0.482-3.707,1.417-5.03,2.697
		c-3.021,2.925-5.755,2.038-8.252-0.319c-1.659-1.567-2.682-3.788-4.234-5.493c-3.749-4.118-7.243-8.615-11.582-12.011
		c-5.036-3.941-10.044-1.171-10.319,5.058c-0.043,0.979,0.153,2.37-0.396,2.856c-3.5,3.106-1.251,5.421,0.384,8.429
		c1.896,3.486,3.41,7.472,3.858,11.382c0.641,5.587,0.19,11.304,0.155,16.964C1375.97,791.784,1376.881,794.708,1381.088,795.495z
		 M285.857,518.037c2.46,3.605,4.247,8.067,7.519,10.642c7.066,5.561,9.612,12.35,8.768,20.977
		c-0.384,3.933-1.547,8.449-0.147,11.771c4.109,9.752-1.071,17.756-3.51,26.319c-0.823,2.888-1.914,5.699-3.086,9.144
		c9.162,0.047,16.463-1.235,22.147-7.838c3.704-4.302,7.725-4.152,12.397-1.102c2.258,1.476,5.017,2.393,7.677,3.009
		c11.133,2.578,21.697-0.955,32.262-3.594c2.974-0.743,5.265-3.122,3.408-6.863c-2.883-5.806-5.391-11.854-8.837-17.307
		c-3.235-5.117-5.443-11.913-14.321-10.137c-7.43,1.487-12.162-2.839-16.22-9.036c-2.442-3.729-7.016-6.139-10.828-8.867
		c-2.911-2.084-6.755-3.159-9.098-5.689C306.543,521.424,297.352,517.97,285.857,518.037z M1327.686,874.397
		c3.124,3.375,8.077,4.313,13.256,4.991c8.326,1.092,16.92,1.118,24.358,6.045c1.43,0.947,3.521,0.853,5.262,1.382
		c3.411,1.038,6.754,2.323,10.199,3.221c2.141,0.557,4.868,1.509,6.552,0.686c5.278-2.578,10.18-5.925,15.243-8.948
		c1.256-0.749,2.498-1.649,3.872-2.053c6.759-1.984,9.039-6.813,5.248-12.763c-2.273-3.569-5.364-6.76-8.573-9.563
		c-7.814-6.828-7.659-6.599-4.232-15.918c0.933-2.536,0.476-6.243-0.754-8.71c-1.001-2.008-13.692-0.286-15.343,1.769
		c-2.942,3.663-6.748,5.122-11.307,5.43c-1.665,0.112-3.723,0.645-4.83,1.755c-6.599,6.612-7.162,6.823-15.207,3.462
		C1339.608,851.436,1333.687,862.43,1327.686,874.397z M1423.188,902.999c1.948-7.071,0.865-10.187-4.163-13.91
		c-1.826-1.353-3.553-2.954-4.968-4.726c-3.001-3.759-6.095-3.791-10.096-0.723c-8.418,6.454-16.568,14.878-28.402,6.126
		c-0.939-0.694-2.586-0.383-3.876-0.665c-2.75-0.604-5.482-1.294-8.224-1.941c-7.866-1.857-15.672-4.068-23.622-5.44
		c-5.226-0.901-10.29-1.801-13.812-5.976c-2.423-2.87-4.954-3.486-8.366-2.475c-1.719,0.51-3.589,0.533-5.396,0.719
		c-8.051,0.823-16.104,1.625-24.154,2.436c-0.093,5.261,2.055,7.656,7.675,8.589c4.276,0.71,7.682,2.039,10.804,5.876
		c3.579,4.397,7.281,9.103,13.137,11.603c3.912,1.67,7.338,5.11,10.202,8.432c3.27,3.79,6.517,6.752,11.849,6.574
		c7.655-0.255,15.359,0.074,22.965-0.657c10.072-0.969,11.207-2.297,12.782-10.898c2.019,0.736,3.966,1.662,6.017,2.126
		c1.63,0.369,4.144,0.925,4.963,0.102c4.523-4.541,10.197-4.975,15.956-5.131C1410.748,902.867,1417.046,902.999,1423.188,902.999z
		 M1449.186,515.02c-2.879,12.697-5.863,23.795-7.779,35.074c-1.179,6.939-7.259,9.702-10.498,14.841
		c-4.601,7.297-5.921,15.63,0.144,21.045c3.995,3.567,9.933,5.52,15.331,6.782c4.432,1.036,8.479,1.757,10.197,6.332
		c1.354,3.604,1.868,7.521,3.223,11.124c0.45,1.198,2.38,2.664,3.58,2.618c5.842-0.227,6.862,0.7,7.774,6.254
		c0.342,2.083,1.885,4.934,3.599,5.606c2.781,1.093,6.134,0.976,7.417-3.225c0.488-1.6,1.823-3.784,3.163-4.113
		c3.224-0.793,3.155-2.673,2.252-4.784c-3.104-7.246-6.403-14.408-9.796-21.978c3.855-4.068,3.148-9.47-0.079-13.936
		c-3.514-4.862-5.493-9.806-5.38-15.698c0.003-0.148-0.157-0.294-0.202-0.451c-1.38-4.778-3.051-9.498-4.019-14.358
		c-0.566-2.845,0.208-5.341-3.829-6.877c-2.393-0.909-4.569-5.063-4.966-8.01C1458.36,524.164,1451.717,521.585,1449.186,515.02z
		 M282.936,449.122c-0.985,8.353-1.544,16.212-2.915,23.927c-1.77,9.965-3.973,19.868-6.428,29.688
		c-1.068,4.27,0.87,6.7,4.052,7.939c5.374,2.094,10.946,3.936,16.603,4.976c6.428,1.181,12.146,3.442,16.972,7.77
		c5.156,4.624,10.075,9.271,16.924,11.756c3.175,1.152,5.875,4.729,7.868,7.804c4.668,7.202,11.19,10.215,19.16,7.676
		c0.987-0.314,2.065-2.361,2.017-3.563c-0.205-5.136-0.792-10.258-1.287-15.38c-0.513-5.307-1.781-10.694-6.712-13.275
		c-4.276-2.239-7.606-5.041-10.394-8.807c-0.776-1.049-1.81-2.106-2.965-2.645c-7.788-3.627-15.652-7.088-23.462-10.665
		c-2.064-0.945-4.958-1.608-5.858-3.273c-2.373-4.389-6.096-6.313-10.406-7.907c-7.395-2.734-10.514-8.585-8.603-16.228
		C289.339,461.566,287.314,455.265,282.936,449.122z M1167.957,998.98c1.01,11.561,8.868,13.611,18.548,13.343
		c-1.062,1.072-2.013,2.142-2.946,2.127c-2.906-0.046-5.838-0.9-8.696-0.665c-1.988,0.163-4.872,1.124-5.571,2.583
		c-1.108,2.311-0.557,5.219,2.572,6.588c1.365,0.598,2.6,1.493,4.324,2.508c-5.45,1.568-10.104,2.908-14.76,4.251
		c-0.656,4.948,2.412,9.552,7.772,11.186c2.504,0.764,6.429,2.311,7.528,1.247c3.682-3.562,7.835-3.412,12.072-3.07
		c4.177,0.337,5.353-1.464,5.006-5.214c-0.321-3.473,0.416-6.271,3.771-8.441c3.722-2.408,6.942-5.601,10.332-8.508
		c4.388-3.764,3.98-12.179-0.424-15.736c-1.559-1.259-2.85-3.268-3.473-5.189c-2.188-6.752-6.201-11.584-13.005-13.986
		c-2.583-0.912-5.328-1.695-7.568-3.186c-5.672-3.773-11.303-5.819-17.866-2.173c-0.915,0.509-2.493-0.048-3.733-0.278
		c-2.062-0.384-4.158-0.728-6.135-1.396c-6.725-2.278-10.497,4.795-16.819,5.279c2.589,2.902,5.525,5.054,8.3,7.397
		c2.125,1.795,4.473,3.553,5.956,5.826c2.229,3.418,4.538,6.009,9.026,5.537C1163.81,998.836,1165.483,998.98,1167.957,998.98z
		 M370.017,590.459c5.658,4.608,10.881,9.208,16.483,13.287c3.008,2.189,6.583,4.702,10.051,4.947
		c9.393,0.663,16.73,4.816,23.448,10.871c1.543,1.392,3.727,3.276,5.411,3.09c5.799-0.642,11.585-3.124,13.79-8.535
		c1.721-4.225,2.155-10.056,0.647-14.275c-2.659-7.444-7.234-14.205-11.196-21.604c-0.41,0.464-1.244,1.87-2.47,2.699
		c-2.647,1.788-5.524,4.705-8.255,4.648c-12.224-0.251-24.426-1.45-36.645-2.133c-1.982-0.11-4.388,0.109-5.93,1.158
		C373.262,586.034,371.818,588.404,370.017,590.459z M1290.143,853.767c-2.188-2.374-3.776-4.285-5.571-5.978
		c-1.153-1.088-2.712-2.747-3.913-2.61c-5.675,0.648-11.33,1.653-16.898,2.938c-1.419,0.328-2.495,2.144-3.729,3.275
		c1.183,0.945,2.276,2.045,3.568,2.807c2.958,1.747,6.342,2.93,8.953,5.072c3.797,3.116,7.044,6.898,10.569,10.353
		c1.476,1.445,3.021,3.896,4.607,3.955c5.447,0.204,10.952-0.225,16.389-0.832c6.537-0.73,13.074-1.656,19.509-2.993
		c2.261-0.47,5.483-1.967,6.099-3.745c3.007-8.69,9.265-14.383,16.149-19.792c6.02-4.729,7.376-11.74,8.229-19.34
		c-4.135,2.016-8.568,4.069-10.896,7.536c-3.184,4.741-6.307,5.405-11.181,3.555c-1.327-0.505-4.244,0.134-4.807,1.149
		c-3.859,6.954-7.286,14.148-10.943,21.45c-1.197-0.422-2.752-1.521-4.181-1.376c-5.746,0.581-9.669-2.094-13.245-6.169
		C1296.248,850.057,1293.176,850.131,1290.143,853.767z M1040.75,844.109c-0.901-3.571-2.033-6.109-2.101-8.675
		c-0.238-9.142-8.127-13.562-12.124-20.356c-1.175-1.995-2.966-3.775-3.599-5.913c-1.925-6.505-4.354-7.267-10.482-4.36
		c-3.559,1.688-7.98,2.558-11.88,2.227c-3.514-0.299-6.845-2.737-8.823-3.604c-5.369,2.778-9.928,5.137-15.217,7.873
		c2.168,3.288,3.717,6.782,6.278,9.208c2.686,2.543,6.206,4.351,9.613,5.942c3.183,1.485,6.844,3.501,10.03,3.112
		c7.792-0.948,10.803,1.028,10.766,8.916c-0.031,6.373,3.566,8.889,8.479,4.696c5.253-4.481,9.418-2.563,14.254-0.739
		C1037.274,842.938,1038.629,843.373,1040.75,844.109z M866.038,990.718c1.965-0.147,3.941-0.21,5.891-0.466
		c1.968-0.26,3.898-0.811,5.867-1.061c6.472-0.822,8.728-4.21,6.249-10.26c-2.301-5.617-4.108-11.918-7.99-16.254
		c-3.063-3.422-9.073-6.131-13.543-5.821c-4.472,0.31-12.358-0.08-12.055,8.662c0.007,0.198-0.885,0.352-1.254,0.652
		c-3.754,3.057-3.698,7.311-2.968,11.384c0.63,3.52,2.876,5.771,7.012,5.604c1.212-0.049,3.341,0.998,3.576,1.919
		C858.121,990.17,861.036,991.939,866.038,990.718z M1565.945,640.097c10.996-0.323,15.868-3.264,18.535-12.853
		c0.785-2.823-1.384-6.986-3.271-9.82c-0.971-1.458-4.439-2.155-6.543-1.8c-9.465,1.598-15.04,8.907-14.498,18.365
		C1560.393,637.915,1561.553,641.002,1565.945,640.097z M1244.985,932.705c-0.926-2.943-1.466-5.161-2.348-7.233
		c-0.396-0.929-1.346-1.864-2.274-2.272c-1.93-0.849-3.994-1.786-6.037-1.869c-2.125-0.086-4.92,0.149-6.24,1.447
		c-1.098,1.078-1.1,4.096-0.521,5.917C1230.089,936.647,1238.417,938.109,1244.985,932.705z M1252.267,968.358
		c0.396-2.677,0.944-6.397,1.544-10.464c-1.206,0.274-2.303,0.185-2.71,0.672c-2.788,3.329-5.756,6.576-8.041,10.239
		c-3.052,4.894-2.801,4.958,3.337,5.516c1.166,0.105,2.302,1.119,3.349,1.86c2.394,1.693,4.724,3.479,7.079,5.227
		c0.474-0.492,0.947-0.984,1.422-1.476C1256.391,976.342,1254.535,972.75,1252.267,968.358z M1262.021,948.805
		c3.708-7.356-3.2-9.441-5.561-13.583c-0.762-1.337-2.111-2.592-3.495-3.245c-1.259-0.595-2.928-0.322-5.612-0.521
		c3.985,3.174,3.998,5.455,2.118,8.674c-0.97,1.662-0.558,6.21,0.188,6.448C1253.646,947.848,1257.937,948.17,1262.021,948.805z
		 M1254.042,950.686c0.091,1.614-0.082,2.365,0.196,2.863c2.018,3.615,4.083,6.979,1.916,11.527
		c-0.99,2.078,0.037,3.582,3.385,3.543c5.094-0.061,6.195-5.096,9.975-6.727c1.247-0.538,1.086-4.057-2.096-3.82
		c-3.405,0.254-5.91-0.505-7.916-3.552C1258.512,953.017,1256.38,952.265,1254.042,950.686z M1226.931,950.907
		c4.229-2.383,1.463-8.338,6.086-10.321c0.136-0.058-0.15-2.046-0.736-2.666c-2.151-2.277-4.512-4.357-7.948-7.602
		c-0.293,4.401,0.298,8.336-0.97,11.533C1221.495,946.558,1222.473,949.182,1226.931,950.907z M1258.814,928.245
		c-2.546-8.542-12.846-15.261-19.299-11.92C1245.389,921.436,1249.49,928.597,1258.814,928.245z"/>
	<path fill-rule="evenodd" clip-rule="evenodd" d="M1442.742,219.427c-3.091,0.177-6.182,0.469-9.272,0.463
		c-0.989-0.002-2.09-0.637-2.945-1.252c-3.284-2.361-6.599-4.702-9.683-7.31c-1.981-1.676-4.202-3.525-5.216-5.789
		c-1.909-4.265-3.602-8.071-8.441-10.148c-5.29-2.271-6.979-7.03-6.26-12.778c0.212-1.696-0.543-3.561-1.051-5.291
		c-1.235-4.21-2.702-8.354-3.855-12.585c-1.16-4.25-1.97-8.595-3.083-12.859c-1.961-7.514-3.448-14.4,1.127-22.214
		c2.381-4.068,0.476-10.854-0.064-16.357c-0.419-4.28-1.721-8.474-2.63-12.705c0.586-0.312,1.171-0.622,1.757-0.933
		c1.964,2.214,4.092,4.306,5.856,6.669c3.454,4.629,6.221,9.883,10.211,13.959c2.667,2.725,6.952,3.869,10.519,5.709
		c0.974,0.502,2.575,0.729,2.864,1.477c3.881,10.043,12.48,8.333,20.424,8.509c2.212,0.049,5.001,0.084,6.504,1.344
		c4.846,4.061,9.712,6.811,16.434,7.002c3.098,0.088,6.096,3.688,8.933,5.56c3.326-1.168,7.275-3.794,11.046-3.559
		c4.524,0.283,9.096,2.624,13.271,4.795c3.299,1.716,5.772,4.332,4.845,9.052c-1.029,5.233,3.979,5.593,6.876,5.624
		c16.902,0.184,27.098,12.142,38.647,21.603c1.068,0.875,0.156,4.366-0.102,6.612c-0.317,2.758-0.914,5.483-1.512,8.925
		c4.463,0,8.188,0.854,11.28-0.184c5.92-1.985,11.109-0.103,15.514,2.755c3.345,2.17,6.125,6.186,7.623,9.984
		c1.916,4.859,5.667,5.725,9.647,6.428c10.581,1.869,11.637,2.434,9.034,14.192c-1.174,5.307-4.442,10.149-6.628,14.913
		c3.739-2.01,7.756-4.196,11.8-6.333c2.54-1.341,3.278-0.33,3.912,2.322c0.776,3.246,3.201,6.164,3.675,9.404
		c1.479,10.114,10.315,17.803,9.22,28.702c-0.106,1.052,0.133,2.64,0.833,3.192c5.654,4.47,6.194,11.643,9.46,17.35
		c0.214,0.374,0.748,0.563,1.108,0.822c0.677-2.626,1.333-5.176,1.99-7.726c0.499-0.234,0.999-0.469,1.499-0.702
		c8.966,12.393,20.06,22.385,33.26,29.818c-0.847,1.721-1.276,2.613-1.723,3.498c-3.066,6.082-6.524,12.004-9.097,18.288
		c-2.617,6.393-3.582,13.544-6.712,19.62c-3.056,5.933-7.563,11.271-12.16,16.191c-2.426,2.597-13.912-1.108-16.824-4.775
		c-3.974-5.007-7.623-10.296-11.893-15.029c-1.458-1.616-4.307-2.147-6.629-2.772c-3.481-0.938-7.357-0.885-10.537-2.38
		c-7.749-3.643-15.721-3.941-23.939-3.012c-9.886,1.118-16.308-4.421-16.343-14.647c-0.014-4.218-1.444-6.877-4.637-9.69
		c-6.419-5.657-13.679-10.6-17.29-19.027c-1.868-4.36-6.36-3.82-10.457-3.879c-3.666-0.052-7.326-0.961-10.974-1.58
		c-1.128-0.192-2.2-0.7-3.31-1.021c-9.831-2.844-19.656-5.705-29.501-8.499c-3.686-1.046-5.643-3.169-5.176-7.187
		c0.111-0.961,0.06-2.052-0.287-2.938c-2.853-7.291-5.303-14.803-8.892-21.721c-2.119-4.086-2.747-9.996-10.386-9.769
		c-6.002,0.18-7.854-4.533-6.222-11.206c0.383-1.563,0.434-3.424-0.033-4.942c-2.094-6.814-4.429-13.556-6.678-20.323
		C1441.896,220.533,1442.318,219.98,1442.742,219.427z"/>
	<path fill-rule="evenodd" clip-rule="evenodd" d="M1473.083,464.604c-1.224,0.92-2.208,1.66-3.111,2.339
		c-0.474-0.244-0.925-0.32-1.028-0.552c-4.353-9.748-10.464-18.661-13.01-29.293c-1.468-6.131-4.503-11.869-6.292-17.943
		c-3.372-11.447-1.48-22.529,3.508-33.128c0.484-1.029,2.592-1.295,4.759-2.287c0.716-1.767,1.857-4.663,3.071-7.53
		c0.302-0.713,0.895-1.935,1.255-1.899c6.926,0.667,5.053-5.371,6.789-8.675c0.889-1.69,2.203-3.155,3.291-4.745
		c2.252-3.292,4.51-6.58,6.709-9.906c1.374-2.077,2.936-4.097,3.909-6.358c3.298-7.663,5.644-15.534,3.071-23.954
		c-1.44-4.715-3.092-9.363-4.577-14.064c-0.28-0.884-0.229-1.872-0.469-4.089c6.262,1.979,11.829,3.757,17.409,5.493
		c1.568,0.487,3.177,0.847,4.765,1.274c2.985,0.804,5.933,1.828,8.966,2.366c3.38,0.599,6.832,0.942,10.265,1.058
		c3.479,0.116,7.378-0.633,9.222,3.215c4.057,8.469,11.906,13.265,18.131,19.645c1.651,1.693,2.503,4.341,3.25,6.7
		c1.092,3.443,1.347,7.188,2.693,10.506c2.436,6.004,5.623,7.941,12.106,7.139c10.63-1.316,20.474,0.396,30.779,3.68
		c7.649,2.437,13.569,4.588,18.087,11.773c3.253,5.176,9.159,8.685,14.497,13.489c-2.317,2.12-5.159,4.791-8.078,7.376
		c-8.915,7.897-7.318,18.268,3.286,24.009c4.153,2.249,9.248,5.034,11.006,8.898c2.589,5.691,6.782,9.9,9.813,14.988
		c2.596,4.357-2.226,6.871-5.172,8.786c-6.567,4.271-6.364,3.937-4.427,11.522c1.758,6.883,2.97,13.96,3.679,21.025
		c0.247,2.46-1.209,5.529-2.79,7.648c-3.984,5.342-6.278,10.356-2.083,16.828c2.403,3.709-1.362,4.623-3.897,5.714
		c-5.876,2.529-11.819,4.917-17.593,7.662c-1.469,0.699-3.271,2.416-3.44,3.841c-0.856,7.209-5.685,9.906-11.802,11.808
		c-8.076,2.51-16.097,5.11-24.715,3.867c-2.271-0.327-4.806-0.58-6.659-1.753c-9.129-5.777-17.58-5.246-26.205,1.276
		c-7.198,5.443-14.999,4.645-21.481-1.654c-1-0.972-1.477-2.863-1.527-4.353c-0.125-3.651,0.768-7.443,0.063-10.939
		c-0.646-3.207-2.076-7.118-4.499-8.95c-8.433-6.378-17.67-11.69-26.124-18.044c-3.169-2.382-5.835-6.188-7.311-9.907
		c-2.651-6.683-4.198-13.8-6.29-20.711C1474.566,466.756,1473.803,465.854,1473.083,464.604z"/>
	<path fill-rule="evenodd" clip-rule="evenodd" d="M1529.308,851.733c-7.146,6.538-27.64,14.561-38.883,15.574
		c-0.602,1.771-1.223,3.598-2.04,6.004c-2.281-0.613-4.431-1.192-6.581-1.771c0.107,0.35,0.214,0.698,0.321,1.047
		c-2.35,0.804-4.646,1.984-7.061,2.331c-4.548,0.651-9.282,0.316-13.716,1.349c-3.743,0.87-8.241,2.238-6.074,8.201
		c-1.426,0.227-2.414,0.636-3.31,0.487c-8.803-1.458-13.479,3.679-17.168,10.531c-1.173,2.177-2.349,4.396-3.867,6.325
		c-0.896,1.139-2.466,1.746-4.478,2.309c2.138-9.803-3.41-15.228-9.607-20.435c-2.551-2.144-3.396-4.367-1.926-8.227
		c2.124-5.576-0.721-10.699-4.839-14.747c-2.844-2.796-6.022-5.247-8.967-7.944c-2.39-2.188-3.578-4.349-1.386-7.782
		c1.513-2.368,2.276-5.604,2.289-8.457c0.025-5.505,1.571-8.304,6.992-8.087c5.651,0.226,9.288-2.438,13.085-5.898
		c6.623-6.037,13.377-11.692,17.353-20.224c1.463-3.142,5.761-5.503,9.28-7.042c10.271-4.491,20.07-9.564,28.686-16.885
		c6.125-5.203,13.901-5.483,21.377-5.217c8.787,0.313,15.522-2.655,20.589-9.793c1.437-2.023,3.473-3.619,4.924-5.635
		c5.849-8.125,13.935-9.884,23.57-11.384c14.035-2.185,27.614-7.168,33.323-23.071c2.819-7.854,10.193-11.438,17.835-13.952
		c2.513-0.827,5.399-1.212,7.417-2.728c6.552-4.921,14.398-5.673,21.929-7.391c1.665-0.38,4.773,0.098,5.294,1.141
		c2.004,4.014,5.381,3.886,8.877,4.092c6.072,0.358,7.002,1.538,6.432,7.781c-0.137,1.492-0.24,2.994-0.237,4.491
		c0.013,5.47,4.625,8.361,9.619,6.063c1.727-0.795,3.453-1.59,5.994-2.761c-0.742,11.201,7.346,15.621,13.694,21.338
		c2.624,2.363,3.145,5.214,0.44,8.116c-1.669,1.791-3.195,3.715-3.534,5.645c0.582,3.599,1.165,7.197,1.983,12.261
		c-3.48-1.04-5.928-2.098-8.466-2.407c-1.545-0.188-4.198,0.291-4.703,1.298c-4.752,9.486-13.522,14.867-21.213,21.328
		c-6.824,5.731-12.428,11.815-13.921,21.372c-1.196,7.65-7.726,11.579-14.671,13.965c-3.619,1.243-6.036,2.886-7.426,6.762
		c-1.47,4.099-4.715,6.979-9.634,6.208c-5.827-0.914-9.397,1.876-12.101,6.607c-0.979,1.712-2.46,3.131-3.514,4.808
		c-1.631,2.595-3.35,2.766-6.241,1.633c-1.784-0.699-4.876-0.156-6.444,1.048c-7.185,5.521-14.964,9.596-23.662,12.185
		c-3.818,1.137-6.43,0.162-8.813-2.594C1533.849,856.964,1531.562,854.332,1529.308,851.733z"/>
	<path fill-rule="evenodd" clip-rule="evenodd" d="M955.717,484.427c-2.677,3.922-5.021,7.512-7.527,10.986
		c-3.2,4.438-3.142,9.044-1.417,14.014c0.842,2.427,0.99,5.094,1.551,8.201c-2.032,0.151-3.517,0.57-4.868,0.307
		c-4.416-0.864-6.213,2.058-7.078,5.287c-1.16,4.338-1.863,8.233-6.031,11.428c-5.893,4.517-11.104,10.094-15.875,15.825
		c-2.098,2.521-2.677,6.476-3.448,9.891c-1.19,5.277-1.779,10.691-2.984,15.965c-0.472,2.064-1.919,3.907-3.42,5.76
		c-1.502-11.695-11.606-16.402-17.722-24.183c-3.101-3.944-8.327-7.9-7.075-14.858c0.914-5.076,0.953-10.504-2.684-15.172
		c-1.105-1.419-1.133-3.678-2.538-4.495c-2.802-2.185-6.251-3.901-8.254-6.665c-2.984-4.118-5.098-8.907-7.217-13.576
		c-0.421-0.927,0.413-3.041,1.333-3.857c5.79-5.133,4.867-11.783-1.836-15.641c-2.043-1.176-3.894-3.973-4.384-6.329
		c-1.762-8.456-2.428-17.032,0.75-25.397c1.464-3.854,3.54-6.303,8.251-4.087c0.778,0.366,3.437-1.087,3.617-2.013
		c0.716-3.692,1.49-7.631,0.849-11.231c-0.374-2.103-3.073-4.461-5.281-5.407c-3.136-1.343-5.114,1.164-6.398,3.906
		c-0.803,1.714-1.594,3.433-2.579,5.554c-3.656-7.594-1.255-18.342,4.457-23.182c5.879-4.981,11.407-10.388,17.398-15.224
		c2.472-1.995,5.752-2.989,9.566-4.887c0.847-5.152,0.626-11.239-5.442-16c1.042-0.761,1.576-1.438,2.229-1.584
		c7.291-1.632,14.571-3.346,21.92-4.664c2.493-0.448,5.115,0.099,5.559-3.434c0.053-0.42,0.519-1.004,0.916-1.131
		c5.851-1.882,11.772-3.554,17.575-5.571c6.268-2.18,14.029,0.274,18.934-6.069c0.898-1.161,1.806-2.354,2.46-3.656
		c3.888-7.733,9.201-8.918,16.747-4.122c1.606,1.021,4.186,0.381,6.178,0.974c1.461,0.435,3.879,1.701,3.834,2.479
		c-0.246,4.261,2.908,5.679,5.555,7.482c8.319,5.67,16.724,11.215,25.05,16.876c0.704,0.479,1.454,1.423,1.531,2.214
		c1.092,11.175,2.084,22.358,3.054,33.544c0.085,0.973,0.218,2.304-0.312,2.913c-6.541,7.535-7.012,17.551-10.868,26.166
		c-0.241,0.538-0.814,0.928-0.979,1.107c-6.561-6.314-12.977-12.489-19.277-18.554c-8.722,7.179-9.198,12.442-3.078,22.431
		c0.316,0.069,0.642,0.214,0.949,0.184c2.057-0.199,4.109-0.438,6.164-0.662c-0.178,3.7,0.438,7.677-0.731,11.032
		c-1.524,4.379-4.206,8.44-6.855,12.322c-3.505,5.135-7.052,10.355-11.343,14.805C960.854,488.357,959.689,487.891,955.717,484.427z
		"/>
	<path fill-rule="evenodd" clip-rule="evenodd" d="M1735.393,678.761c-1.072,1.873-2.092,3.75-3.2,5.573
		c-4.889,8.042-13.791,11.764-23.073,10.229c-2.11-0.349-4.829,0.471-6.709,1.646c-10.776,6.741-21.358,13.793-32.09,20.607
		c-1.111,0.706-2.795,0.463-4.18,0.797c-2.673,0.645-5.525,0.979-7.937,2.179c-4.11,2.044-6.782,0.712-6.823-3.993
		c-0.015-1.655,0.271-3.315,0.442-4.972c0.52-5.052-2.41-8.285-7.438-9.251c-3.068-0.589-5.893-2.359-8.896-3.396
		c-2.241-0.773-4.567-1.504-6.907-1.732c-2.099-0.204-4.268,0.303-7.262,0.573c5.245-8.218,9.627-16.14,15.041-23.278
		c5.893-7.771,7.622-15.938,5.848-25.318c-0.306-1.619,0.742-4.004,1.945-5.32c11.09-12.13,22.617-23.873,33.377-36.284
		c2.653-3.06,3.805-8.075,4.154-12.314c0.432-5.254,3.876-7.542,7.321-9.974c8.128-5.736,10.333-17.228,4.571-25.119
		c-4.985-6.829-4.967-8.435-0.769-15.626c1.046-1.791,1.536-4.022,1.833-6.115c1.236-8.721,6.909-14.132,15.749-14.136
		c5.515-0.002,10.442-0.972,15-4.313c2.067-1.517,4.783-2.536,7.336-2.928c7.356-1.127,14.779-1.819,22.85-2.761
		c0.141,2.642,0.341,5.203,0.397,7.769c0.069,3.164,0.123,6.334-0.003,9.494c-0.247,6.154,0.142,11.678,4.51,17.056
		c2.864,3.524,3.173,9.164,4.476,13.898c0.52,1.887,0.634,3.885,0.718,4.435c2.876,1.327,5.729,1.697,6.411,3.112
		c4.271,8.86,12.865,15.045,15.109,25.175c1.306,5.895,3.458,11.602,5.28,17.562c1.298-0.203,2.422-0.401,3.553-0.553
		c5.309-0.711,8.155,1.201,8.565,6.436c0.417,5.303,1.441,11.008-0.02,15.87c-1.246,4.146-5.468,7.509-8.688,10.921
		c-4.731,5.014-10.378,9.294-14.426,14.779c-2.933,3.974-6.484,5.717-10.658,6.353c-9.142,1.391-17.158,4.245-23.085,11.989
		C1744.313,682.277,1739.107,682.297,1735.393,678.761z"/>
	<path fill-rule="evenodd" clip-rule="evenodd" d="M504.18,799.808c-5.425-0.43-10.876-0.678-16.259-1.414
		c-1.407-0.192-3.247-1.642-3.788-2.963c-2.108-5.152-5.729-7.928-9.944-5.103c-5.364,3.596-8.558-0.111-12.036-1.949
		c-4.408-2.329-8.165-5.89-12.216-8.901c-0.388-0.288-0.984-0.741-1.296-0.623c-6.821,2.594-12.273-6.442-19.591-2.159
		c-1.686,0.987-5.064-0.764-7.612-1.449c-2.617-0.703-4.569-0.231-5.523,2.496c-2.38,6.81-7.097,8.996-14.199,8.425
		c-5.123-0.411-10.369,0.717-16.592,1.245c4.529-8.718,3.292-18.317,10.063-24.771c1.027-0.979,2.824-1.453,4.316-1.587
		c8.827-0.788,15.059-7.58,14.2-14.834c-4.753-1.301-10.174-1.379-13.423-4.074c-3.182-2.64-6.022-5.247-9.906-6.884
		c-0.964-0.407-0.773-3.223-1.415-4.81c-0.773-1.908-1.952-3.648-2.795-5.534c-0.586-1.312-1.325-2.766-1.254-4.117
		c0.17-3.234,0.078-5.594-3.158-7.996c-6.417-4.764-7.533-15.398-3.274-21.391c2.41-3.39,5.598-4.463,9.552-4.031
		c2.968,0.325,5.954,0.824,8.919,0.747c4.766-0.123,9.413-0.468,10.521,5.844c0.051,0.292,0.37,0.546,0.588,0.797
		c3.41,3.909,18.791,7.921,23.645,6.02c7.846-3.073,15.659-6.23,23.443-9.459c5.283-2.19,18.484,2.518,20.576,7.783
		c2.047,5.156,5.65,6.604,10.921,6.661c15.1,0.162,28.388-4.578,40.242-13.723c6.23-4.806,7.803-10.376,4.926-17.645
		c-0.734-1.855-1.602-3.662-2.49-5.45c-1.762-3.545-2.328-6.517,1.396-9.643c1.921-1.612,2.964-4.827,3.45-7.491
		c1.457-7.994,2.208-16.117,3.71-24.101c0.823-4.371,2.604-8.563,4.137-13.415c6.223,3.45,12.553,5.008,11.045,13.103
		c-0.106,0.568,0.24,1.287,0.535,1.854c5.108,9.856,6.619,20.514,7.05,31.417c0.02,0.498,0.269,1.059,0.114,1.481
		c-2.5,6.847,1.436,11.524,5.658,15.815c4.722,4.8,1.596,10.356,2.641,15.464c-6.305,1.047-8.655,6.98-4.51,11.47
		c3.456,3.742,2.272,6.216,0.047,9.978c-2.149,3.634-2.47,8.305-4.016,12.358c-0.752,1.973-2.615,3.493-3.696,5.378
		c-0.848,1.478-1.699,3.176-1.795,4.819c-0.249,4.292-0.083,8.608-0.083,12.015c-7.165,2.297-13.782,4.332-20.34,6.546
		c-5.493,1.854-5.221,3.845-4.311,9.412c0.943,5.766,4.654,7.83,9.44,10.563c-1.978,1.161-3.236,2.352-4.688,2.679
		c-9.245,2.081-10.415,9.417-11.04,16.938c-0.355,4.282-0.064,8.618-0.064,12.924c-5.833-0.558-11.395-0.742-16.776-1.823
		c-1.545-0.311-2.571-3.212-3.834-4.925C503.651,801.119,503.916,800.464,504.18,799.808z"/>
	<path fill-rule="evenodd" clip-rule="evenodd" d="M457.375,162.559c0.846-7.198,4.754-8.486,10.61-7.221
		c1.289,0.278,3.119-1.951,4.322-3.623c0.301-0.108,0.739-0.404,0.884-0.298c7.942,5.806,16.913,1.336,25.314,2.503
		c0.654,0.091,1.515-0.532,2.123-1.019c5.418-4.345,6.953-4.25,12.358,0.402c2.44,2.101,5.111,3.934,8.714,6.677
		c-3.079,1.89-6.183,4.554-9.778,5.819c-5.23,1.842-9.641,4.095-12.185,9.352c-0.908,1.876-2.572,3.493-4.174,4.908
		c-7.02,6.2-9.1,14.594-10.615,23.271c-0.423,2.425-0.837,4.852-1.28,7.421c-1.773,0.172-3.381,0.327-5.316,0.515
		c-0.752,4.479-1.635,8.818-2.169,13.201c-0.443,3.635-2.507,4.967-5.778,4.472c-3.509-0.531-5.317,1.036-6.141,4.172
		c-1.045,3.979-2.641,7.938-2.898,11.976c-0.781,12.245-1.41,24.529-1.255,36.788c0.045,3.613,2.88,7.196,4.461,10.782
		c0.924,2.096,2.314,4.084,2.771,6.271c1.651,7.89,7.662,13.262,11.27,20.012c1.819,3.402,2.907,6.278,1.539,10.223
		c-1.753,5.053-2.676,10.393-3.937,15.53c-5.501-6.393-10.633-12.573-16.049-18.492c-1.346-1.471-3.901-3.273-5.408-2.906
		c-6.18,1.508-10.897-2.207-16.223-3.653c-4.153-1.127-8.303-2.28-12.406-3.573c-5.34-1.684-10.603-3.619-15.961-5.237
		c-2.188-0.66-4.546-1.104-6.82-1.075c-7.731,0.094-13.642-3.597-19.109-8.515c-2.97-2.671-2.284-5.552-0.976-8.63
		c0.965-2.273,2.202-4.514,2.68-6.896c1.815-9.058-1.788-15.747-9.927-20.354c-2.297-1.301-4.277-3.75-5.572-6.126
		c-4.353-7.987-8.334-16.178-12.447-24.296c-0.222-0.438-0.602-0.995-0.49-1.372c1.962-6.588-0.675-12.103-3.016-18.098
		c-0.861-2.205,2.638-6.887,5.141-9.481c6.534-6.771,13.601-13.027,20.488-19.454c2.188-2.042,3.838-4.157,7.636-4.601
		c2.99-0.349,5.857-4.06,8.229-6.76c2.489-2.834,5.196-3.75,8.919-4.321c16.42-2.518,31.851-7.415,42.55-21.447
		c2.204-2.892,3.546-1.603,4.494,0.936c1.437,3.851,2.739,7.751,4.099,11.63C456.489,162.165,456.932,162.362,457.375,162.559z"/>
	<path fill-rule="evenodd" clip-rule="evenodd" d="M1638.369,647.017c2.891,6.527,2.234,12.138-1.233,17.652
		c-6.077,9.664-11.507,19.775-18.119,29.05c-5.213,7.313-12.988,11.443-21.796,14.1c-10.527,3.174-18.125,10.01-21.613,20.963
		c-0.682,2.14-2.709,4.229-4.658,5.523c-9.712,6.451-20.124,11.048-32.136,10.801c-5.562-0.114-9.221,3.396-12.687,7.046
		c-3.667,3.86-6.68,8.536-10.875,11.647c-3.939,2.922-8.981,5.805-13.657,6.013c-13.057,0.578-24.118,4.546-34.202,13.052
		c-5.194,4.382-12.147,6.76-18.459,9.714c-5.861,2.744-11.066,5.828-13.739,12.267c-1.202,2.893-3.679,5.256-5.168,7.298
		c-2.855-5.919-5.7-11.367-8.078-17.012c-0.758-1.798-0.229-4.122-0.372-6.199c-0.335-4.884-0.666-9.77-1.107-14.645
		c-0.234-2.6-0.638-5.188-1.065-7.765c-0.575-3.465-1.063-6.96-1.925-10.357c-1.155-4.561,1.042-7.939,4.209-10.247
		c5.292-3.856,5.986-9.5,6.77-15.05c0.647-4.585,0.48-9.296,0.524-13.952c0.075-7.851,3.167-11.243,11.312-11.553
		c3.115-0.119,6.258,0.869,9.396,0.923c5.75,0.1,11.544,0.261,17.246-0.324c4.76-0.489,9.364-2.428,14.124-2.978
		c7.816-0.903,15.245-4.33,18.224-10.734c4.215-9.064,12.881-11.528,19.327-17.145c1.673-1.458,3.949-2.369,6.093-3.115
		c9.148-3.183,16.716-8.057,22.27-16.456c3.216-4.863,8.187-8.659,12.751-12.478c1.179-0.986,3.806-0.31,5.766-0.284
		c6.224,0.079,12.104-0.192,17.165-5.013c1.477-1.407,5.473-0.74,8.068-0.071c0.839,0.216,0.971,3.462,1.276,5.347
		c0.151,0.937-0.403,2.571-0.012,2.796c4.429,2.536,3.778,7.498,5.569,11.258c1.749,3.67,4.898,4.948,8.566,4.902
		c6.953-0.088,13.375-1.689,19.015-6.281C1629.085,652.495,1633.667,650.061,1638.369,647.017z"/>
	<path fill-rule="evenodd" clip-rule="evenodd" d="M482.34,825.757c12.176-2.689,28.147,2.08,32.03,8.688
		c-4.03,5.955-7.855,11.442-11.468,17.066c-0.851,1.325-1.115,3.084-1.426,4.687c-0.623,3.213-1.382,6.443-1.529,9.691
		c-0.115,2.54,0.189,5.273,1.063,7.643c1.142,3.097,2.837,6.04,4.632,8.833c4.428,6.891,5.176,13.51,2.338,21.686
		c-2.378,6.85-1.967,14.773-2.164,22.239c-0.142,5.395,0.539,10.844,1.236,16.219c0.583,4.483,0.896,8.505-3.97,11.023
		c-1.227,0.635-1.951,2.239-3.534,4.159c-1.7-2.662-3.192-4.493-4.142-6.571c-4.378-9.576-9.211-12.113-19.228-9.722
		c-8.331,1.988-16.483,2.148-24.961-0.001c-6.265-1.588-12.718-0.873-18.184,3.899c-2.379,2.078-5.678,3.104-9.186,4.935
		c-0.759-5.133-0.95-8.759-1.967-12.137c-0.397-1.319-2.554-2.732-4.078-2.958c-3.099-0.458-6.395,0.301-9.456-0.267
		c-2.857-0.529-5.51-2.146-8.267-3.247c-1.453-0.581-2.976-1.624-4.399-1.521c-3.876,0.282-6.482-0.906-8.729-4.268
		c-1.406-2.104-4.637-2.941-6.207-4.992c-1.725-2.253-2.484-5.246-4.103-8.91c-5.671-0.686-12.501-1.511-20.493-2.477
		c1.351-2.009,2.061-4.139,3.526-5.04c4.169-2.563,7.218-5.563,7.725-10.755c0.121-1.239,1.431-2.498,2.448-3.485
		c1.938-1.881,5.173-3.202,5.906-5.408c2.834-8.531,5.277-17.241,7.062-26.048c0.754-3.719-0.646-7.839-0.716-11.783
		c-0.021-1.18,1.244-3.455,1.759-3.409c7.34,0.649,8.752-5.971,11.638-10.012c2.641-3.699,4.742-5.867,9.652-5.672
		c5.629,0.224,11.153-5.615,11.864-11.169c0.293-2.293,0.114-4.901,1.184-6.774c1.281-2.242,3.509-5.224,5.608-5.468
		c5.357-0.624,10.892-0.14,16.314,0.353c4.386,0.399,8.754,1.276,13.046,2.297c2.146,0.511,5.115,1.285,5.943,2.866
		c1.878,3.587,4.674,3.349,7.56,2.977C477.604,811.515,481.326,814.394,482.34,825.757z"/>
	<path fill-rule="evenodd" clip-rule="evenodd" d="M449.526,494.229c2.542,1.329,4.784,2.149,6.591,3.536
		c2.215,1.7,3.757,4.43,6.127,5.751c11.185,6.236,10.224,15.892,9.213,26.622c-0.715,7.594-0.803,15.886,3.454,23.043
		c0.711,1.195,2.267,2.147,3.639,2.651c10.813,3.972,21.448,8.104,30.579,15.549c6.026,4.913,12.967,8.693,19.1,13.491
		c5.259,4.115,7.269,10.345,8.749,16.66c1.508,6.434,0.844,12.452-1.209,18.909c-1.899,5.972-1.161,12.746-1.916,19.128
		c-0.563,4.773-1.458,9.532-2.607,14.198c-0.442,1.795-1.625,3.931-3.121,4.84c-3.807,2.313-3.481,4.989-2.059,8.492
		c6.827,16.808,6.941,17.064-7.842,27.422c-10.452,7.323-22.348,10.185-35.049,7.984c-1.96-0.34-4.258-2.641-5.125-4.599
		c-2.135-4.819-5.655-6.496-10.56-7.859c-7.257-2.016-13.047-1.451-19.652,2.744c-5.409,3.436-12.43,5.594-18.831,5.839
		c-5.985,0.229-12.158-2.608-18.101-4.548c-1.354-0.441-2.101-2.741-2.443-3.225c8.386-7.861,16.375-15.217,24.21-22.733
		c8.305-7.967,5.148-16.979-1.541-23.729c-5.227-5.274-2.657-11.964-4.994-17.616c-0.153-0.369,2.768-2.356,4.475-3.086
		c6.562-2.804,12.589-6.433,12.792-14.318c0.113-4.379-0.704-9.614-3.104-13.073c-7.863-11.33-9.578-23.534-7.169-36.596
		c0.555-3.007,3.005-5.639,3.718-8.648c0.878-3.704,1.223-7.638,1.08-11.444c-0.09-2.385-1.419-4.753-2.338-7.07
		c-3.106-7.835-1.753-14.264,4.868-19.991C447.375,506.566,447.792,504.916,449.526,494.229z"/>
	<path fill-rule="evenodd" clip-rule="evenodd" d="M1394.193,603.358c8.993,4.448,18.346,2.214,27.437,2.603
		c5.542,0.236,7.859,4.164,10.528,8.057c1.153,1.682,2.939,3.347,4.802,4.039c4.55,1.691,6.365,6.005,9.54,8.981
		c1.822,1.707,3.707,3.405,5.209,5.378c1.338,1.758,2.818,3.793,3.132,5.872c0.813,5.396,3.695,8.608,9.086,8.684
		c9.386,0.131,18.839,2.713,28.158-0.702c0.57-0.209,1.462,0.456,2.677,0.881c0.184-3.168,0.349-5.997,0.53-9.135
		c6.179,3.899,14.036,1.351,16.402-5.695c2.439-7.264,3.641-14.951,5.238-22.483c0.214-1.008-0.13-2.387-0.709-3.269
		c-4.632-7.051-8.783-14.496-16.585-18.854c-1.556-0.869-2.836-2.914-3.434-4.689c-1.927-5.726-3.894-11.497-5.035-17.408
		c-0.888-4.603,6.588-10.078,12.181-8.463c0.898-4.741,2.026-9.374,2.6-14.074c0.619-5.083,1.024-10.234,0.94-15.346
		c-0.055-3.378-1.001-5.957-5.563-7.173c-2.93-0.781-5.056-5.439-7.03-8.672c-1.699-2.781-2.674-6.005-4.437-10.129
		c2.168,1.079,3.741,1.616,5.031,2.547c5.66,4.082,11.627,7.864,16.688,12.604c2.618,2.452,4.114,6.527,5.113,10.146
		c0.76,2.754-0.497,6.011-0.052,8.92c0.368,2.398,1.397,5.125,3.048,6.813c3.926,4.014,8.021,8.097,12.738,11.043
		c5.589,3.49,11.945,5.735,17.882,8.695c1.88,0.938,3.753,2.188,5.152,3.729c3.625,3.994,7.125,8.122,10.372,12.426
		c1.121,1.486,1.625,3.602,1.935,5.508c1.069,6.576,3.638,12.092,9.833,15.348c0.584,0.307,1.253,0.66,1.596,1.182
		c1.35,2.054,4.003,4.632,3.516,6.176c-0.665,2.104-3.536,3.923-5.862,4.992c-3.567,1.641-7.927,1.833-11.153,3.891
		c-7.974,5.083-9.466,13.029-8.215,21.899c0.271,1.924,0.287,4.681-0.835,5.875c-7.088,7.55-14.5,14.798-21.888,22.061
		c-1.033,1.017-2.429,1.932-3.812,2.281c-9.598,2.423-17.037,8.764-25.147,13.835c-2.094,1.31-3.288,3.981-5.117,5.806
		c-4.137,4.127-7.749,9.954-12.772,11.765c-9.425,3.396-19.662,4.647-29.641,6.326c-2.981,0.502-6.274-0.293-9.335-0.928
		c-7.92-1.64-15.264-1.118-21.368,4.886c-1.885,1.853-3.665,1.828-4.844-0.452c-3.501-6.768-10.718-9.322-16.055-13.938
		c-3.886-3.362-5.257-6.954-5.57-11.293c-0.396-5.471-1.448-11.465,0.267-16.364c1.896-5.418,3.415-11.865,10.217-14.712
		c6.632-2.775,7.076-8.216,3.479-13.992c-2.905-4.666-5.287-9.655-7.98-14.457c-0.639-1.139-1.4-2.727-2.434-3.045
		C1395.55,618.526,1397.584,609.53,1394.193,603.358z"/>
	<path fill-rule="evenodd" clip-rule="evenodd" d="M1688.342,543.983c1.083-7.815-4.441-11.304-9.013-15.522
		c-1.666-1.537-3.218-3.563-3.956-5.669c-1.788-5.105-5.469-6.52-10.384-6.809c-6.127-0.361-12.255-0.991-18.333-1.854
		c-9.29-1.317-13.763-11.389-7.341-18.068c6.095-6.339,4.29-12.625,2.738-19.393c-1.322-5.768-2.856-11.488-4.077-17.276
		c-0.157-0.746,0.822-2.016,1.605-2.604c1.035-0.779,2.58-0.895,3.588-1.695c8.114-6.448,9.981-9.418,2.75-16.043
		c-2.831-2.593-2.377-6.424-3.993-8.8c-2.96-4.351-7.28-8.415-11.953-10.787c-5.053-2.564-8.243-5.749-10.092-10.895
		c-1.146-3.194-0.419-5.189,2.281-7.242c3.38-2.569,6.247-5.804,9.501-8.556c1.475-1.246,3.261-2.648,5.053-2.893
		c5.278-0.719,8.892-3.825,11.67-7.813c3.542-5.086,7.205-9.858,8.658-16.505c1.522-6.96,5.944-13.286,9.59-20.915
		c4.804,8.159,10.835,14.627,7.344,24.262c-0.712,1.968-0.933,4.208-0.929,6.322c0.012,6.34,1.503,7.401,7.897,6.021
		c2.423-0.523,4.404-0.569,5.616,2.388c2.768,6.753,7.087,11.827,13.339,16.302c4.825,3.454,7.193,10.5,10.287,16.15
		c1.635,2.986,2.682,5.99,6.909,6.069c1.272,0.024,3.096,1.151,3.679,2.282c2.916,5.648,6.473,11.231,7.938,17.289
		c1.529,6.327,0.745,13.187,1.381,19.773c0.193,2.008,1.276,4.401,2.755,5.72c3.581,3.194,8.232,5.332,11.354,8.865
		c4.525,5.122,8.891,10.72,11.772,16.845c1.973,4.192,1.459,9.62,1.678,14.512c0.04,0.888-1.625,2.46-2.716,2.687
		c-5.356,1.113-10.851,1.6-16.171,2.844c-5.425,1.269-10.681,3.245-16.057,4.752c-4.274,1.198-8.569,2.739-12.939,3.1
		c-9.707,0.799-15.859,6.297-17.247,16c-0.353,2.465-1.469,4.821-2.233,7.228C1689.642,544.032,1688.991,544.008,1688.342,543.983z"
		/>
	<path fill-rule="evenodd" clip-rule="evenodd" d="M1584.854,633.196c4.328-5.386,3.111-10.568,0.269-16.224
		c-1.107-2.204-0.146-5.818,0.695-8.537c1.004-3.246,0.537-5.67-2.292-7.314c-8.063-4.688-12.455-11.615-13.431-20.856
		c-0.105-0.996-0.958-2.012-1.679-2.829c-3.479-3.944-6.897-7.958-10.606-11.678c-2.3-2.306-4.865-4.526-7.698-6.081
		c-4.511-2.477-9.393-4.268-14.019-6.551c-1.813-0.895-3.359-2.333-4.33-3.026c5.894-3.225,11.195-7.135,17.139-9.033
		c4.164-1.329,9.956-1.368,13.704,0.567c9.032,4.664,18.629,4.788,27.76,3.669c6.838-0.837,13.28-5.517,19.671-8.914
		c1.431-0.761,2.607-3.282,2.686-5.047c0.187-4.208,2.463-6.215,5.979-7.646c6.401-2.606,12.716-5.428,19.138-7.981
		c1.288-0.512,2.915-0.444,4.345-0.279c7.57,0.871,15.112,2.031,22.696,2.735c3.815,0.354,6.191,1.643,8.265,5.176
		c2.557,4.357,6.442,7.924,9.63,11.931c1.147,1.442,2.526,3.081,2.784,4.783c1.298,8.567,2.614,16.964,8.113,24.228
		c2.559,3.38-0.5,15.095-4.252,17.182c-6.435,3.581-9.76,8.346-10.837,16.009c-0.701,4.993-4.5,9.9-7.837,14.113
		c-14.181,17.903-31.641,32.167-50.775,44.476c-5.165,3.322-10.816,2.885-16.418,2.042c-1.402-0.211-3.496-1.719-3.711-2.911
		c-0.936-5.209-6.005-8.923-4.969-14.959c0.252-1.47-2.152-3.82-3.847-5.072C1589.531,634.063,1587.32,633.928,1584.854,633.196z"/>
	<path fill-rule="evenodd" clip-rule="evenodd" d="M618.31,829.401c3.737,7.846,9.566,8.333,15.446,8.585
		c8.144,0.35,18.124,10.229,17.065,17.703c-0.458,3.236-2.28,6.642-4.4,9.212c-6.058,7.343-12.293,14.593-19.027,21.309
		c-5.149,5.136-11.054,9.545-16.827,14.012c-5.169,4-6.68,9.875-3.557,15.729c1.089,2.041,2.323,4.013,3.292,6.107
		c1.816,3.925,2.593,7.607-0.565,11.605c-3.498,4.428-3.667,9.456-0.339,14.333c0.92,1.349,1.689,2.801,2.665,4.437
		c-7.983,3.078-15.596,6.013-23.282,8.977c-1.612-7.282-2.347-7.799-9.42-8.447c-5.27-0.483-10.176-1.084-13.183-6.913
		c-2.658-5.151-7.444-5.577-13.264-3.745c-3.717,1.17-7.815,1.647-11.727,1.574c-8.111-0.152-15.604,1.762-22.949,5.004
		c-2.277,1.005-5.006,0.985-7.833,1.488c-3.441-17.008-3.555-33.282,0.906-49.416c1.558-5.637,1.313-10.809-1.633-15.854
		c-0.839-1.437-1.326-3.161-2.411-4.358c-7.114-7.854-4.215-17.041-3.374-25.853c0.179-1.869,2.67-3.404,3.396-5.354
		c2.78-7.46,8.28-11.333,15.563-14.055c5.244-1.959,9.663-6.021,14.769-8.485c3.495-1.686,6.144,0.897,5.146,4.583
		c-1.866,6.888-1.481,12.237,5.266,17.219c4.702,3.471,10.424,6.39,13.271,12.623c2.093,4.583,10.344,3.498,13.315-1.814
		c4.078-7.293,9.632-11.43,18.04-12.287c5.052-0.516,10.13-1.702,14.929-3.361c2.15-0.743,3.908-3.193,5.37-5.212
		C614.745,836.279,616.031,833.454,618.31,829.401z"/>
	<path fill-rule="evenodd" clip-rule="evenodd" d="M334.816,504.182c-6.653-3.273-11.854-6.13-17.293-8.417
		c-4.409-1.854-8.769-3.22-11.758-7.565c-1.447-2.103-4.467-3.401-7.033-4.404c-8.498-3.32-10.765-7.363-8.649-16.178
		c1.384-5.769,0.551-11.093-2.829-16.116c-3.422-5.086-6.51-10.396-9.745-15.608c-2.934-4.726-5.158-9.606-4.852-15.428
		c0.109-2.064-0.295-4.579-1.437-6.206c-3.278-4.669-3.157-9.901-3.828-15.179c-1.402-11.031-3.742-21.945-5.068-32.982
		c-0.352-2.93,1.352-6.225,2.52-9.19c2.253-5.722,5.476-11.147,7.049-17.028c1.896-7.09,8.444-12.534,15.794-11.316
		c3.59,0.595,7.128,1.601,10.628,2.631c10.471,3.082,20.539,4.044,29.442-4.192c5.52-5.106,12.715-4.904,20.084-6.178
		c0.12,7.328-3.633,12.789-6.268,18.47c-1.494,3.22-3.984,6.301-6.756,8.541c-6.449,5.213-6.031,11.704-4.254,18.508
		c0.957,3.663,2.704,7.111,3.866,10.73c2.298,7.156,2.87,13.847-2.382,20.536c-1.724,2.196-1.408,7.355-0.105,10.315
		c4.104,9.327,8.083,18.544,9.196,28.842c0.283,2.617,1.985,5.259,3.557,7.527c5.211,7.521,11.088,14.615,15.855,22.396
		c2.833,4.624-1.231,8.923-3.471,12.81c-1.136,1.971-3.669,3.362-5.85,4.464C343.065,488.09,334.774,491.979,334.816,504.182z"/>
	<path fill-rule="evenodd" clip-rule="evenodd" d="M428.969,459.419c-5.742-0.3-13.032-0.326-20.21-1.235
		c-2.726-0.345-5.271-2.6-7.766-4.191c-9.004-5.744-17.711-11.794-23.082-21.498c-2.943-5.318-6.575-10.281-9.209-15.735
		c-2.401-4.971-2.397-10.22,0.721-15.262c4.282-6.923,8.204-14.069,12.484-20.993c2.189-3.54,3.501-6.926,2.4-11.257
		c-1.64-6.449,2.228-11.683,5.194-16.692c3.848-6.497,5.304-12.518,3.545-20.269c-1.318-5.809,0.537-12.388,1.358-18.574
		c0.121-0.914,2.571-2.439,3.549-2.183c15.403,4.047,30.734,8.368,46.103,12.548c2.672,0.727,5.48,0.952,8.157,1.667
		c2.391,0.639,5.365,0.986,6.896,2.593c4.194,4.396,8.001,9.227,11.436,14.244c1.031,1.506,0.378,4.193,0.397,6.34
		c0.004,0.433-0.374,0.924-0.685,1.296c-6.805,8.125-7.635,17.583-7.565,27.802c0.042,6.226-0.503,12.943-4.467,18.791
		c-2.228,3.286-2.734,7.702-4.271,11.506c-1.515,3.749-1.485,8.946-7.554,8.947c-0.361,0-0.882,0.552-1.058,0.963
		c-2.803,6.578-5.6,13.16-8.306,19.778c-0.678,1.659-0.911,3.498-1.56,5.172C433.52,448.225,431.458,453.233,428.969,459.419z"/>
	<path fill-rule="evenodd" clip-rule="evenodd" d="M324.264,663.106c-1.409-1.694-3.138-3.216-4.166-5.116
		c-2.992-5.533-5.61-11.268-8.619-16.791c-0.471-0.865-2.215-1.037-2.148-2.119c-2.026-5.457-4.028-10.924-6.084-16.369
		c-2.888-7.648-9.876-3.92-16.574-5.311c3.318-6.031,5.972-11.6,9.412-16.63c0.966-1.412,4.227-1.628,6.464-1.727
		c6.184-0.274,11.221-2.683,15.428-7.137c4.566-4.835,6.111-4.846,11.506-1.495c2.182,1.355,4.823,2.456,7.346,2.692
		c8.571,0.802,17.195,2.114,25.608-1.522c1.48-0.64,4.103,0.018,5.592,0.997c4.43,2.915,8.813,6.005,12.744,9.548
		c5.983,5.396,12.48,9.108,20.683,10.014c12.411,1.37,22.296,12.116,23.788,24.476c0.36,2.985,2.06,6.141,3.984,8.547
		c7.738,9.681,8.227,15.867-0.373,23.714c-6.146,5.608-11.711,12.207-19.981,14.46c-5.473,1.491-11.434,2.012-17.112,1.719
		c-6.656-0.344-12.569-0.641-16.507,6.176c-0.852,1.474-3.569,2.237-5.56,2.598c-3.09,0.56-6.292,0.505-9.449,0.685
		c-3.135,0.179-5.086-1.076-5.237-4.436c-0.015-0.333,0.027-0.673-0.026-0.999c-1.454-8.995-1.556-8.972-10.572-9.126
		c-4.439-0.075-8.934-0.287-13.285-1.084c-3.629-0.664-5.543-3.218-5.176-7.271c0.267-2.954,0.052-5.951,0.052-8.93
		C325.422,662.815,324.843,662.961,324.264,663.106z"/>
	<path fill-rule="evenodd" clip-rule="evenodd" d="M377.864,466.34c4.046,0.367,7.212,0.542,10.346,0.963
		c4.803,0.646,8.903-0.761,13.357-2.698c9.201-4,19.156-3.402,28.944-2.339c0.907,0.099,2.054,1.652,2.394,2.746
		c3.041,9.795,7.051,19.097,12.771,27.673c2.017,3.025-0.536,13.581-4.056,15.915c-10.424,6.911-11.879,16.04-7.369,26.88
		c2.879,6.921,2.866,13.308-1.928,19.642c-1.636,2.162-1.771,5.53-2.356,8.395c-0.53,2.599-0.472,5.332-1.143,7.883
		c-2.105,8.001-6.206,11.299-14.476,11.483c-8.103,0.181-16.223,0.296-24.314-0.056c-4.257-0.186-8.529-1.204-12.662-2.331
		c-1.267-0.345-2.321-2.168-3.086-3.531c-3.416-6.079-6.229-12.551-10.139-18.282c-4.555-6.679-5.769-14.126-5.747-21.632
		c0.029-10.371-3.192-18.081-12.271-23.906c-11.761-7.548-10.965-17.979,1.482-24.425c6.984-3.616,12.496-7.631,15.414-15.762
		C365.265,466.707,372.993,467.516,377.864,466.34z"/>
	<path fill-rule="evenodd" clip-rule="evenodd" d="M265.011,337.349c0-6.915,0.163-13.835-0.076-20.741
		c-0.104-3.014-1.154-5.984-1.52-9.006c-0.145-1.199,0.116-2.63,0.676-3.703c5.758-11.049,11.118-22.354,17.662-32.923
		c3.111-5.024,9.036-8.229,12.727-12.999c2.45-3.167,3.1-7.692,4.753-11.523c0.836-1.937,1.743-4.094,3.25-5.446
		c7.655-6.87,15.557-13.462,23.294-20.241c6.706-5.877,14.32-7.992,22.963-5.678c3.425,0.917,7.562,10.944,7.15,15.241
		c-0.227,2.367,0.418,5.058,1.423,7.258c3.383,7.403,6.78,14.838,10.833,21.88c1.976,3.435,5.026,6.572,8.272,8.889
		c7.476,5.336,9.587,13.51,4.972,21.817c-0.879,1.581-2.069,3.173-2.333,4.882c-1.383,8.927-7.414,14.466-14.833,17.551
		c-7.865,3.271-16.704,4.118-24.832,6.866c-5.864,1.982-11.626,4.801-16.769,8.241c-5.398,3.612-10.586,3.894-16.536,2.395
		c-6.285-1.585-12.707-2.623-19.065-3.923c-6.288-1.284-10.937,0.832-14.471,6.249c-1.477,2.264-3.916,3.899-5.917,5.82
		C266.095,337.952,265.553,337.65,265.011,337.349z"/>
	<path fill-rule="evenodd" clip-rule="evenodd" d="M972.211,188.989c-0.107,1.145-0.388,1.813-0.167,2.11
		c5.113,6.87-0.708,11.781-3.596,16.626c-3.419,5.734-9.043,9.494-15.711,11.372c-1.536,0.433-2.87,1.583-4.311,2.411
		c-4.266-4.138-3.577-6.93,3.191-12.736c-6.632-4.124-8.375-3.613-13.721,1.869c-3.821,3.918-9.031,4.332-15.228,4.077
		c1.692-2.4,2.781-3.945,5.005-7.1c-5.068,0.455-9.065,0.188-12.655,1.271c-6.662,2.01-13.027,4.984-19.639,7.187
		c-2.562,0.853-5.464,0.975-8.204,0.93c-3.804-0.062-3.495-2.089-1.741-4.299c-4.568-1.879-9.132-3.756-14.576-5.994
		c0.407-1.217,0.708-3.062,1.586-4.569c3.046-5.226,1.761-9.595-3.682-11.81c-4.637-1.887-6.021-6.161-4.433-11.827
		c0.583-2.081-0.152-4.506-0.108-6.771c0.05-2.587-0.722-6.477,0.632-7.531c6.171-4.811,6.988-12.555,11.113-18.407
		c2.219-3.148,4.332-3.841,8.258-3.347c6.062,0.762,12.678,2.813,17.728-3.844c1.403-1.849,5.55-1.958,8.495-2.211
		c4.103-0.352,8.259-0.089,13.238-0.089c3.167,5.99,11.246,4.53,17.096,7.673c0.835,0.448,1.938,0.464,2.685,1.002
		c3.452,2.488,5.999,2.355,9.443-0.854c2.471-2.302,6.766-2.668,10.271-3.827c1.199-0.396,3.359-0.281,3.569-0.907
		c2.518-7.497,11.509-5.624,15.614-10.834c0.34-0.432,3.431,0.431,4.25,1.474c1.007,1.281,1.494,3.448,1.289,5.12
		c-0.712,5.819,2.19,10.155,5.243,14.53c0.718,1.029,1.696,2.167,1.771,3.306c0.48,7.421,0.973,14.857,0.915,22.284
		c-0.015,1.773-1.993,4.957-3.249,5.05c-5.501,0.405-7.047,4.003-8.052,8.664C980.44,188.989,976.48,188.989,972.211,188.989z"/>
	<path fill-rule="evenodd" clip-rule="evenodd" d="M574.396,735.229c2.854-1.934,6.244-3.394,8.456-5.896
		c5.189-5.869,16.963-5.745,21.606-1.191c1.645,1.613,3.452,4.223,3.317,6.254c-0.307,4.61,2.121,6.15,5.557,8.092
		c2.659,1.501,4.339,4.65,6.694,6.806c1.606,1.47,3.544,3.34,5.478,3.525c3.719,0.356,5.572,1.74,5.567,5.462
		c-0.005,4.746-0.154,9.497-0.004,14.238c0.104,3.28,1.083,6.595,0.771,9.806c-0.224,2.302-1.516,4.83-3.076,6.601
		c-2.936,3.33-6.409,6.187-9.768,9.343c9.965,5.659,11.204,15.34,2.542,23.485c-5.065,4.764-7.641,10.669-10.981,16.339
		c-1.039,1.763-3.397,3.234-5.445,3.828c-7.471,2.166-15.402,3.113-22.484,6.113c-3.994,1.691-6.942,6.279-9.866,9.957
		c-3.472,4.368-7.806,5.422-10.007,1.029c-3.131-6.251-9.234-8.729-14.035-12.594c-4.691-3.777-4.819-7.659-4.326-12.575
		c0.29-2.887,0.053-5.826-0.681-8.771c3.197-4.279,5.427-8.523,0.747-13.801c-0.787-0.888-0.126-4.142,0.939-5.375
		c2.633-3.051,0.967-4.407-1.258-6.393c-2.21-1.973-4.083-4.401-5.738-6.875c-0.629-0.941-0.773-2.875-0.222-3.828
		c2.943-5.094,6.587-9.814,9.211-15.054c3.867-7.723,11.115-11.827,17.725-15.905c7.048-4.348,12.715-7.539,8.011-16.921
		c-0.859-1.715-0.123-4.229-0.123-6.375C573.467,734.779,573.931,735.004,574.396,735.229z"/>
	<path fill-rule="evenodd" clip-rule="evenodd" d="M1626.58,135.041c6.456-1.282,11.635-2.601,16.895-3.247
		c3.209-0.394,5.224-0.938,5.646-4.713c0.431-3.852,1.688-7.61,2.732-12.037c4.963,0,10.358-0.624,15.463,0.322
		c1.904,0.354,4.314,4.318,4.425,6.731c0.257,5.619,1.743,11.567-1.883,16.934c-0.498,0.738,0.727,2.676,1.215,4.036
		c0.9,2.509,2.729,5.043,2.614,7.493c-0.404,8.631,2.729,16.015,7.061,23.202c7.013,0.618,8.235,1.951,8.25,9.217
		c0.01,5.498-0.199,11.006,0.068,16.49c0.199,4.095-1.146,6.364-5.423,6.51c-0.81,0.028-1.674,0.178-2.403,0.512
		c-3.754,1.719-7.471,3.516-11.201,5.285c-0.186,0.698-0.372,1.397-0.559,2.096c-0.926-1.229-1.852-2.457-2.789-3.701
		c-0.149,0.067-0.59,0.116-0.719,0.344c-4.515,7.918-11.646,9.216-19.995,8.584c-3.88-0.294-7.099-0.57-9.353-4.202
		c-0.61-0.984-2.271-1.548-3.552-1.824c-1.434-0.31-3.26,0.453-4.437-0.163c-6.138-3.216-12.67-5.192-19.273-7.123
		c-1.35-0.395-2.07-2.82-3.162-4.248c-1.979-2.586-3.545-5.865-6.136-7.526c-5.022-3.221-10.512-5.821-16.042-8.114
		c-4.991-2.07-8.357-8.418-7.732-16.577c1.201-0.11,2.478-0.146,3.724-0.36c3.07-0.528,5.266-1.826,5.01-5.509
		c-0.261-3.759,1.045-7.826-3.267-10.532c-0.73-0.459-0.474-3.476,0.174-4.935c1.248-2.812,1.875-5.104-0.083-8.025
		c-1.116-1.667-0.856-4.257-1.284-6.843c5.653,0,11.47-0.205,17.253,0.137c1.546,0.092,3.102,1.729,4.461,2.884
		c2.835,2.407,5.88,2.806,8.467,0.178C1616.501,130.468,1622.127,130.362,1626.58,135.041z"/>
	<path fill-rule="evenodd" clip-rule="evenodd" d="M404.789,459.681c-5.89,4.636-11.664,6.064-18.621,5.433
		c-6.304-0.573-12.781,0.914-19.194,1.249c-1.5,0.078-3.708-0.336-4.477-1.36c-5.992-7.975-11.916-16.021-17.385-24.357
		c-1.509-2.301-1.309-5.684-2.081-8.519c-1.456-5.354-2.855-10.737-4.658-15.978c-1.016-2.953-2.943-5.58-4.188-8.472
		c-2.023-4.698-1.368-9.22,1.968-13.07c2.815-3.25,3.293-6.706,2.116-10.672c-2.032-6.848-4.021-13.71-5.937-20.591
		c-1.596-5.735-0.532-9.907,4.612-14.27c7.761-6.58,11.313-16.254,13.116-26.194c0.505-2.783,1.268-4.067,3.887-4.728
		c9.07-2.288,17.088-6.359,23.105-13.836c1.972-2.451,4.148-2.781,6.789-0.371c2.663,2.432,5.805,4.339,9.005,6.671
		c-3.495,8.886-3.924,17.878-1.083,27.169c1.338,4.378-0.606,8.439-3.831,11.781c-4.244,4.397-7.151,9.99-5.999,15.789
		c1.903,9.57-3.359,16.132-7.563,23.333c-2.676,4.584-5.694,8.99-8.077,13.719c-2.751,5.461-1.862,11.354,0.721,16.413
		c3.515,6.886,7.295,13.935,12.391,19.635c5.777,6.463,13.114,11.537,19.818,17.16C400.868,456.993,402.689,458.157,404.789,459.681
		z"/>
	<path fill-rule="evenodd" clip-rule="evenodd" d="M683.05,914.641c-5.644,0.843-10.796,1.48-15.897,2.406
		c-7.74,1.405-14.029,5.049-18.683,11.681c-3.412,4.862-6.887,10.042-11.473,13.621c-4.844,3.78-10.835,6.406-16.7,8.466
		c-5.322,1.87-6.778-3.945-8.891-6.934c-1.296-1.832-1.063-6.026,0.193-8.146c3.955-6.674,4.33-12.089,0.024-18.51
		c-5.288-7.885-4.401-11.49,3.363-17.172c5.765-4.218,12.846-7.969,16.264-13.747c5.102-8.626,13.543-14.021,18.513-22.409
		c2.796-4.719,7.058-6.99,12.107-5.687c3.608,0.932,7.447,3.064,9.934,5.798c4.939,5.429,13.696,5.912,18.03,0.179
		c2.069-2.736,4.581-3.025,6.991-0.722c4.286,4.099,8.539,8.266,12.394,12.757c0.791,0.921-0.227,3.395-0.424,5.283
		c1.893,3.254,4.08,7.266,6.51,11.124c2.694,4.277,4.932,9.177,8.587,12.44c5.966,5.327,6.087,12.037,4.616,18.261
		c-0.664,2.806-6.088,4.795-9.691,6.388c-0.939,0.415-3.438-1.79-4.717-3.237c-2.783-3.148-5.311-6.531-7.815-9.914
		c-2.701-3.649-6.556-2.461-10.07-2.533c-4.037-0.084-8.775-1.343-9.567,6.291C684.89,917.546,683.908,915.996,683.05,914.641z"/>
	<path fill-rule="evenodd" clip-rule="evenodd" d="M262.998,450.94c-9.898,3.586-18.157,6.578-26.416,9.569
		c-0.229-0.453-0.458-0.906-0.688-1.359c0.884-1.11,1.729-2.255,2.659-3.326c4.063-4.678,5.914-10.041,6.332-16.286
		c0.25-3.732,1.927-7.464,3.441-10.99c1.485-3.455,3.759-6.569,5.292-10.009c0.456-1.024-0.42-2.643-0.835-4.742
		c1.241-5.903,2.434-13.103,4.365-20.097c0.929-3.365,3.252-6.345,4.943-9.498c0.474,0.009,0.947,0.018,1.42,0.027
		c0.573,3.424,1.395,6.828,1.669,10.275c0.585,7.366-0.547,14.984,4.236,21.598c0.979,1.354,1.354,3.548,1.172,5.267
		c-0.685,6.481,2.322,11.637,5.643,16.635c2.788,4.194,2.995,8.621,3.541,13.531c1.562,14.072-4.576,26.756-5.671,40.26
		c-0.211,2.612-1.024,5.222-1.866,7.729c-2.481,7.395-0.942,11.462,6.228,14.113c3.088,1.142,4.679,2.592,5.836,5.823
		c1.3,3.633,3.368,7.827,6.392,9.852c9.722,6.512,9.853,15.687,9.066,25.671c-0.275,3.492,0.673,7.085,1.107,10.626
		c0.201,1.644,1.059,3.414,0.68,4.886c-2.432,9.438-5.196,18.78-10.886,26.909c-0.219,0.313-0.812,0.364-1.789,0.769
		c1.265-7.027,2.457-13.646,3.648-20.266c-0.532-0.364-1.063-0.729-1.595-1.094c-1.7,2.249-3.4,4.498-5.1,6.747
		c-0.441-0.298-0.883-0.597-1.324-0.896c1.293-4.775,1.782-9.975,4.036-14.242c5.827-11.032-2.022-18.685-6.275-27.027
		c-0.611-1.199-6.167-0.114-9.37,0.352c-1.436,0.209-2.714,1.498-4.748,1.691c3.015-5.854,6.029-11.708,9.044-17.563
		c-8.138,5.344-13.794,14.24-25.06,15.456c0-2.951,0-5.378,0-7.655c-2.744-1.657-7.698,1.329-7.221-4.368
		c-1.655,0.214-3.033,0.393-4.985,0.645c0.449-1.035,0.567-1.643,0.916-2.059c5.39-6.44,10.821-12.848,16.204-19.294
		c0.512-0.612,1.103-1.45,1.084-2.169c-0.181-7.093,3.249-13.278,4.841-19.918c0.264-1.102,0.037-2.32,0.037-3.812
		c-1.281-0.435-2.568-0.871-4.073-1.382C260.225,471.63,261.505,462.077,262.998,450.94z"/>
	<path fill-rule="evenodd" clip-rule="evenodd" d="M1381.088,795.495c-4.207-0.787-5.118-3.711-5.096-7.292
		c0.035-5.66,0.485-11.377-0.155-16.964c-0.448-3.91-1.963-7.896-3.858-11.382c-1.635-3.008-3.884-5.322-0.384-8.429
		c0.549-0.486,0.353-1.878,0.396-2.856c0.275-6.229,5.283-8.999,10.319-5.058c4.339,3.396,7.833,7.893,11.582,12.011
		c1.553,1.705,2.575,3.926,4.234,5.493c2.497,2.357,5.23,3.244,8.252,0.319c1.323-1.28,3.228-2.215,5.03-2.697
		c4.991-1.335,5.957-0.19,6.216,5.093c0.231,4.699,1.294,9.351,1.699,14.049c0.296,3.435-0.103,6.93,0.216,10.359
		c0.32,3.454,0.808,6.968,1.849,10.257c0.931,2.942,3.422,5.477,3.995,8.43c2.121,10.939-5.47,18.562-16.438,20.531
		c-8.131,1.461-16.146,2.777-24.373,3.205c-1.264,0.066-2.89,1.172-3.608,2.277c-2.493,3.834-6.157,4.498-10.291,5.046
		c-2.315,0.307-4.459,2.104-6.619,3.339c-1.938,1.107-3.673,3.065-5.705,3.403c-3.981,0.66-5.862-2.38-4.561-6.172
		c1.287-3.747,1.745-7.858,3.494-11.344c1.377-2.742,4.084-4.86,6.371-7.079c0.769-0.745,2.4-0.661,3.066-1.442
		c4.744-5.574,9.509-11.15,13.858-17.028C1381.564,800.23,1380.95,797.711,1381.088,795.495z"/>
	<path fill-rule="evenodd" clip-rule="evenodd" d="M285.857,518.037c11.494-0.067,20.686,3.387,28.13,11.428
		c2.342,2.53,6.187,3.605,9.098,5.689c3.813,2.729,8.386,5.139,10.828,8.867c4.058,6.197,8.79,10.523,16.22,9.036
		c8.878-1.776,11.086,5.02,14.321,10.137c3.447,5.452,5.954,11.501,8.837,17.307c1.857,3.741-0.434,6.12-3.408,6.863
		c-10.565,2.639-21.129,6.172-32.262,3.594c-2.66-0.616-5.418-1.533-7.677-3.009c-4.673-3.051-8.694-3.2-12.397,1.102
		c-5.685,6.603-12.985,7.885-22.147,7.838c1.172-3.444,2.263-6.256,3.086-9.144c2.439-8.563,7.619-16.567,3.51-26.319
		c-1.399-3.321-0.237-7.838,0.147-11.771c0.844-8.627-1.702-15.416-8.768-20.977C290.104,526.104,288.317,521.643,285.857,518.037z"
		/>
	<path fill-rule="evenodd" clip-rule="evenodd" d="M1327.686,874.397c6.001-11.968,11.923-22.962,23.744-29.216
		c8.045,3.361,8.608,3.15,15.207-3.462c1.107-1.11,3.165-1.643,4.83-1.755c4.559-0.308,8.364-1.767,11.307-5.43
		c1.65-2.055,14.342-3.776,15.343-1.769c1.229,2.467,1.687,6.174,0.754,8.71c-3.427,9.319-3.582,9.09,4.232,15.918
		c3.209,2.804,6.3,5.994,8.573,9.563c3.791,5.95,1.511,10.778-5.248,12.763c-1.374,0.403-2.616,1.304-3.872,2.053
		c-5.063,3.023-9.965,6.37-15.243,8.948c-1.684,0.823-4.411-0.129-6.552-0.686c-3.445-0.897-6.788-2.183-10.199-3.221
		c-1.741-0.529-3.832-0.435-5.262-1.382c-7.438-4.927-16.032-4.953-24.358-6.045C1335.763,878.71,1330.81,877.772,1327.686,874.397z
		"/>
	<path fill-rule="evenodd" clip-rule="evenodd" d="M1423.188,902.999c-6.143,0-12.44-0.132-18.73,0.039
		c-5.759,0.156-11.433,0.59-15.956,5.131c-0.819,0.823-3.333,0.268-4.963-0.102c-2.051-0.464-3.998-1.39-6.017-2.126
		c-1.575,8.602-2.71,9.93-12.782,10.898c-7.605,0.731-15.31,0.402-22.965,0.657c-5.332,0.178-8.579-2.784-11.849-6.574
		c-2.864-3.321-6.29-6.762-10.202-8.432c-5.855-2.5-9.558-7.205-13.137-11.603c-3.122-3.837-6.527-5.166-10.804-5.876
		c-5.62-0.933-7.768-3.328-7.675-8.589c8.05-0.811,16.104-1.612,24.154-2.436c1.808-0.186,3.678-0.209,5.396-0.719
		c3.412-1.012,5.943-0.396,8.366,2.475c3.521,4.175,8.586,5.074,13.812,5.976c7.95,1.372,15.756,3.583,23.622,5.44
		c2.741,0.647,5.474,1.338,8.224,1.941c1.29,0.282,2.937-0.029,3.876,0.665c11.834,8.752,19.984,0.328,28.402-6.126
		c4.001-3.068,7.095-3.036,10.096,0.723c1.415,1.771,3.142,3.373,4.968,4.726C1424.054,892.813,1425.137,895.928,1423.188,902.999z"
		/>
	<path fill-rule="evenodd" clip-rule="evenodd" d="M1449.186,515.02c2.531,6.565,9.175,9.145,10.132,16.247
		c0.396,2.947,2.573,7.101,4.966,8.01c4.037,1.536,3.263,4.032,3.829,6.877c0.968,4.86,2.639,9.58,4.019,14.358
		c0.045,0.157,0.205,0.303,0.202,0.451c-0.113,5.893,1.866,10.836,5.38,15.698c3.228,4.466,3.935,9.867,0.079,13.936
		c3.393,7.569,6.692,14.731,9.796,21.978c0.903,2.111,0.972,3.991-2.252,4.784c-1.34,0.329-2.675,2.514-3.163,4.113
		c-1.283,4.2-4.636,4.317-7.417,3.225c-1.714-0.673-3.257-3.523-3.599-5.606c-0.912-5.554-1.933-6.48-7.774-6.254
		c-1.2,0.046-3.13-1.42-3.58-2.618c-1.354-3.603-1.869-7.521-3.223-11.124c-1.718-4.575-5.766-5.296-10.197-6.332
		c-5.398-1.263-11.336-3.215-15.331-6.782c-6.064-5.415-4.744-13.748-0.144-21.045c3.239-5.139,9.319-7.901,10.498-14.841
		C1443.322,538.814,1446.307,527.717,1449.186,515.02z"/>
	<path fill-rule="evenodd" clip-rule="evenodd" d="M282.936,449.122c4.378,6.143,6.403,12.444,4.565,19.793
		c-1.911,7.643,1.208,13.493,8.603,16.228c4.31,1.595,8.033,3.519,10.406,7.907c0.9,1.665,3.794,2.328,5.858,3.273
		c7.811,3.577,15.675,7.038,23.462,10.665c1.155,0.538,2.188,1.596,2.965,2.645c2.788,3.766,6.117,6.567,10.394,8.807
		c4.932,2.581,6.199,7.969,6.712,13.275c0.496,5.122,1.082,10.244,1.287,15.38c0.048,1.201-1.03,3.248-2.017,3.563
		c-7.969,2.539-14.491-0.474-19.16-7.676c-1.993-3.075-4.693-6.651-7.868-7.804c-6.849-2.484-11.768-7.132-16.924-11.756
		c-4.826-4.327-10.543-6.589-16.972-7.77c-5.656-1.04-11.229-2.882-16.603-4.976c-3.183-1.239-5.12-3.67-4.052-7.939
		c2.456-9.82,4.658-19.724,6.428-29.688C281.392,465.334,281.951,457.475,282.936,449.122z"/>
	<path fill-rule="evenodd" clip-rule="evenodd" d="M1167.957,998.98c-2.474,0-4.147-0.145-5.788,0.028
		c-4.488,0.472-6.798-2.119-9.026-5.537c-1.483-2.273-3.831-4.031-5.956-5.826c-2.774-2.344-5.711-4.495-8.3-7.397
		c6.322-0.484,10.095-7.558,16.819-5.279c1.977,0.669,4.073,1.013,6.135,1.396c1.24,0.23,2.818,0.787,3.733,0.278
		c6.563-3.646,12.194-1.601,17.866,2.173c2.24,1.49,4.985,2.273,7.568,3.186c6.804,2.402,10.816,7.234,13.005,13.986
		c0.623,1.922,1.914,3.931,3.473,5.189c4.404,3.558,4.812,11.973,0.424,15.736c-3.39,2.907-6.61,6.1-10.332,8.508
		c-3.355,2.171-4.093,4.969-3.771,8.441c0.347,3.75-0.829,5.551-5.006,5.214c-4.237-0.342-8.391-0.491-12.072,3.07
		c-1.1,1.063-5.024-0.483-7.528-1.247c-5.36-1.634-8.429-6.237-7.771-11.188c4.654-1.341,9.309-2.681,14.759-4.249
		c-1.725-1.015-2.959-1.91-4.324-2.508c-3.129-1.369-3.681-4.277-2.572-6.588c0.699-1.459,3.583-2.42,5.571-2.583
		c2.858-0.235,5.79,0.619,8.696,0.665c0.934,0.015,1.885-1.055,2.946-2.127C1176.825,1012.592,1168.967,1010.541,1167.957,998.98z"
		/>
	<path fill-rule="evenodd" clip-rule="evenodd" d="M370.017,590.459c1.801-2.055,3.246-4.425,5.335-5.847
		c1.542-1.049,3.948-1.269,5.93-1.158c12.219,0.683,24.421,1.882,36.645,2.133c2.731,0.057,5.608-2.86,8.255-4.648
		c1.226-0.829,2.06-2.235,2.47-2.699c3.962,7.399,8.537,14.16,11.196,21.604c1.507,4.22,1.074,10.051-0.647,14.275
		c-2.205,5.411-7.991,7.894-13.79,8.535c-1.685,0.187-3.868-1.698-5.411-3.09c-6.718-6.055-14.055-10.208-23.448-10.871
		c-3.469-0.245-7.043-2.758-10.051-4.947C380.897,599.667,375.674,595.067,370.017,590.459z"/>
	<path fill-rule="evenodd" clip-rule="evenodd" d="M1290.143,853.767c3.033-3.636,6.105-3.71,8.708-0.744
		c3.576,4.075,7.499,6.75,13.245,6.169c1.429-0.145,2.983,0.954,4.181,1.376c3.657-7.302,7.084-14.496,10.943-21.45
		c0.563-1.016,3.479-1.654,4.807-1.149c4.874,1.851,7.997,1.187,11.181-3.555c2.328-3.467,6.762-5.521,10.896-7.536
		c-0.853,7.6-2.209,14.61-8.229,19.34c-6.885,5.409-13.143,11.102-16.149,19.792c-0.615,1.778-3.838,3.275-6.099,3.745
		c-6.435,1.337-12.972,2.263-19.509,2.993c-5.437,0.607-10.941,1.036-16.389,0.832c-1.586-0.059-3.132-2.51-4.607-3.955
		c-3.525-3.454-6.772-7.236-10.569-10.353c-2.611-2.143-5.995-3.325-8.953-5.072c-1.292-0.762-2.386-1.861-3.568-2.807
		c1.233-1.132,2.31-2.947,3.729-3.275c5.568-1.285,11.224-2.29,16.898-2.938c1.201-0.137,2.76,1.522,3.913,2.61
		C1286.366,849.481,1287.955,851.393,1290.143,853.767z"/>
	<path fill-rule="evenodd" clip-rule="evenodd" d="M1040.75,844.109c-2.121-0.736-3.476-1.172-4.805-1.673
		c-4.836-1.823-9.001-3.742-14.254,0.739c-4.913,4.192-8.511,1.677-8.479-4.696c0.037-7.888-2.974-9.864-10.766-8.916
		c-3.187,0.389-6.848-1.627-10.03-3.112c-3.407-1.592-6.928-3.399-9.613-5.942c-2.562-2.426-4.11-5.92-6.278-9.208
		c5.289-2.736,9.848-5.095,15.217-7.873c1.979,0.866,5.31,3.305,8.823,3.604c3.899,0.331,8.321-0.539,11.88-2.227
		c6.128-2.906,8.558-2.145,10.482,4.36c0.633,2.138,2.424,3.918,3.599,5.913c3.997,6.795,11.886,11.215,12.124,20.356
		C1038.717,838,1039.849,840.538,1040.75,844.109z"/>
	<path fill-rule="evenodd" clip-rule="evenodd" d="M866.038,990.718c-5.001,1.222-7.917-0.548-9.217-5.641
		c-0.235-0.921-2.363-1.968-3.576-1.919c-4.136,0.167-6.381-2.084-7.012-5.604c-0.729-4.073-0.786-8.327,2.968-11.384
		c0.37-0.301,1.261-0.454,1.254-0.652c-0.303-8.742,7.583-8.353,12.055-8.662c4.471-0.31,10.481,2.399,13.543,5.821
		c3.882,4.336,5.689,10.637,7.99,16.254c2.479,6.05,0.223,9.438-6.249,10.26c-1.969,0.25-3.899,0.801-5.867,1.061
		C869.979,990.508,868.002,990.57,866.038,990.718z"/>
	<path fill-rule="evenodd" clip-rule="evenodd" d="M1565.945,640.097c-4.393,0.905-5.553-2.182-5.777-6.107
		c-0.542-9.458,5.033-16.768,14.498-18.365c2.104-0.355,5.572,0.342,6.543,1.8c1.888,2.834,4.057,6.997,3.271,9.82
		C1581.813,636.833,1576.941,639.773,1565.945,640.097z"/>
	<path fill-rule="evenodd" clip-rule="evenodd" d="M1244.985,932.705c-6.568,5.404-14.896,3.942-17.421-4.011
		c-0.578-1.821-0.576-4.839,0.521-5.917c1.32-1.298,4.115-1.533,6.24-1.447c2.043,0.083,4.107,1.021,6.037,1.869
		c0.929,0.408,1.879,1.344,2.274,2.272C1243.52,927.544,1244.06,929.762,1244.985,932.705z"/>
	<path fill-rule="evenodd" clip-rule="evenodd" d="M1252.267,968.358c2.269,4.392,4.124,7.983,5.979,11.574
		c-0.475,0.491-0.948,0.983-1.422,1.476c-2.355-1.748-4.686-3.533-7.079-5.227c-1.047-0.741-2.183-1.755-3.349-1.86
		c-6.138-0.558-6.389-0.622-3.337-5.516c2.285-3.663,5.253-6.91,8.041-10.239c0.407-0.487,1.504-0.397,2.71-0.672
		C1253.211,961.961,1252.662,965.682,1252.267,968.358z"/>
	<path fill-rule="evenodd" clip-rule="evenodd" d="M1262.021,948.805c-4.085-0.635-8.375-0.957-12.361-2.228
		c-0.746-0.238-1.158-4.786-0.188-6.448c1.88-3.219,1.867-5.5-2.118-8.674c2.685,0.199,4.354-0.073,5.612,0.521
		c1.384,0.653,2.733,1.908,3.495,3.245C1258.821,939.363,1265.729,941.448,1262.021,948.805z"/>
	<path fill-rule="evenodd" clip-rule="evenodd" d="M1239.274,954.297c-1.079-2.94-3.131-5.521-1.464-9.194
		c0.523-1.151-1.634-3.52-2.547-5.297c6.599-0.144,9.863,2.294,12.082,8.629c0.563,1.609,2.027,2.888,2.965,4.389
		c0.604,0.968,1.004,2.063,1.496,3.102c-1.335,0.316-2.771,1.11-3.984,0.854c-2.959-0.624-5.816-1.734-8.715-2.649L1239.274,954.297
		z"/>
	<path fill-rule="evenodd" clip-rule="evenodd" d="M1254.042,950.686c2.338,1.579,4.47,2.331,5.46,3.835
		c2.006,3.047,4.511,3.806,7.916,3.552c3.182-0.236,3.343,3.282,2.096,3.82c-3.779,1.631-4.881,6.666-9.975,6.727
		c-3.348,0.039-4.375-1.465-3.385-3.543c2.167-4.549,0.102-7.912-1.916-11.527C1253.96,953.051,1254.133,952.3,1254.042,950.686z"/>
	<path fill-rule="evenodd" clip-rule="evenodd" d="M1226.931,950.907c-4.458-1.726-5.436-4.35-3.568-9.056
		c1.268-3.197,0.677-7.132,0.97-11.533c3.437,3.244,5.797,5.324,7.948,7.602c0.586,0.62,0.872,2.608,0.736,2.666
		C1228.394,942.569,1231.159,948.524,1226.931,950.907z"/>
	<path fill-rule="evenodd" clip-rule="evenodd" d="M1239.107,954.13c0.893,1.84,1.318,4.558,2.777,5.336
		c3.003,1.602,2.884,4.392,1.354,5.382c-1.705,1.103-5.308,1.141-6.95,0.004c-2.138-1.479-5.345-3.111-4.554-7.188
		c0.193-0.996-2.153-2.484-3.276-4.982c3.603,0.535,7.204,1.07,10.811,1.61C1239.274,954.297,1239.107,954.13,1239.107,954.13z"/>
	<path fill-rule="evenodd" clip-rule="evenodd" d="M1258.814,928.245c-9.324,0.352-13.426-6.81-19.299-11.92
		C1245.969,912.984,1256.269,919.703,1258.814,928.245z"/>
</g>
</svg>
